<mxfile host="Electron" modified="2024-07-21T06:41:06.388Z" agent="Mozilla/5.0 (Macintosh; Intel Mac OS X 10_15_7) AppleWebKit/537.36 (KHTML, like Gecko) draw.io/24.1.0 Chrome/120.0.6099.109 Electron/28.1.0 Safari/537.36" etag="WlFEApPTYvHV2ohcRzP-" version="24.1.0" type="device" pages="2">
  <diagram name="IDS Account" id="Vmj3-iElVKvDOlGkBP9f">
    <mxGraphModel dx="1420" dy="790" grid="1" gridSize="10" guides="1" tooltips="1" connect="1" arrows="1" fold="1" page="1" pageScale="1" pageWidth="827" pageHeight="1169" math="0" shadow="0">
      <root>
        <mxCell id="0" />
        <mxCell id="1" parent="0" />
        <mxCell id="cykdBwdM0Bds0NIfHY12-219" value="" style="rounded=0;whiteSpace=wrap;html=1;strokeColor=#5B9BD5;fillColor=#f5f5f5;fontColor=#333333;" parent="1" vertex="1">
          <mxGeometry x="300" y="1038" width="440" height="49.9999" as="geometry" />
        </mxCell>
        <mxCell id="cykdBwdM0Bds0NIfHY12-3" value="Identity" style="rounded=0;whiteSpace=wrap;html=1;strokeColor=#7030A0;fontColor=#7030A0;fontStyle=1;verticalAlign=middle;align=left;spacingLeft=3;" parent="1" vertex="1">
          <mxGeometry x="7" y="9" width="200" height="30" as="geometry" />
        </mxCell>
        <mxCell id="cykdBwdM0Bds0NIfHY12-5" value="" style="rounded=0;whiteSpace=wrap;html=1;strokeColor=#7030A0;fillColor=#f5f5f5;fontColor=#333333;" parent="1" vertex="1">
          <mxGeometry x="7" y="39" width="200" height="951" as="geometry" />
        </mxCell>
        <mxCell id="cykdBwdM0Bds0NIfHY12-6" value="User Login" style="rounded=0;whiteSpace=wrap;html=1;strokeColor=#FFFFFF;fillColor=#7030A0;fontColor=#FFFFFF;align=left;spacingLeft=3;" parent="1" vertex="1">
          <mxGeometry x="14.873999999999999" y="136.09" width="180" height="30" as="geometry" />
        </mxCell>
        <mxCell id="cykdBwdM0Bds0NIfHY12-7" value="Password" style="rounded=0;whiteSpace=wrap;html=1;strokeColor=#FFFFFF;fillColor=#7030A0;fontColor=#FFFFFF;align=left;spacingLeft=3;" parent="1" vertex="1">
          <mxGeometry x="14.873999999999999" y="166.09" width="180" height="30" as="geometry" />
        </mxCell>
        <mxCell id="cykdBwdM0Bds0NIfHY12-8" value="Last Name" style="rounded=0;whiteSpace=wrap;html=1;strokeColor=#FFFFFF;fillColor=#7030A0;fontColor=#FFFFFF;align=left;spacingLeft=3;" parent="1" vertex="1">
          <mxGeometry x="14.873999999999995" y="346.09000000000003" width="180" height="30" as="geometry" />
        </mxCell>
        <mxCell id="cykdBwdM0Bds0NIfHY12-9" value="First Name" style="rounded=0;whiteSpace=wrap;html=1;strokeColor=#FFFFFF;fillColor=#7030A0;fontColor=#FFFFFF;align=left;spacingLeft=3;" parent="1" vertex="1">
          <mxGeometry x="14.873999999999999" y="376.09000000000003" width="180" height="30" as="geometry" />
        </mxCell>
        <mxCell id="cykdBwdM0Bds0NIfHY12-10" value="IDS Account" style="rounded=0;whiteSpace=wrap;html=1;strokeColor=#5B9BD5;fontColor=#5B9BD5;fontStyle=1;verticalAlign=middle;align=left;spacingLeft=3;" parent="1" vertex="1">
          <mxGeometry x="250" y="9" width="490" height="30" as="geometry" />
        </mxCell>
        <mxCell id="cykdBwdM0Bds0NIfHY12-11" value="" style="rounded=0;whiteSpace=wrap;html=1;strokeColor=#5B9BD5;fillColor=#f5f5f5;fontColor=#333333;" parent="1" vertex="1">
          <mxGeometry x="250" y="39" width="490" height="951" as="geometry" />
        </mxCell>
        <mxCell id="cykdBwdM0Bds0NIfHY12-13" value="" style="shape=table;startSize=0;container=1;collapsible=0;childLayout=tableLayout;fillColor=#5B9BD5;strokeColor=#5B9BD5;fontColor=#FFFFFF;spacingRight=3;spacingLeft=3;" parent="1" vertex="1">
          <mxGeometry x="260" y="46.09000000000003" width="470" height="933.9099999999999" as="geometry" />
        </mxCell>
        <mxCell id="cykdBwdM0Bds0NIfHY12-14" value="" style="shape=tableRow;horizontal=0;startSize=0;swimlaneHead=0;swimlaneBody=0;strokeColor=inherit;top=0;left=0;bottom=0;right=0;collapsible=0;dropTarget=0;fillColor=none;points=[[0,0.5],[1,0.5]];portConstraint=eastwest;fontColor=#FFFFFF;" parent="cykdBwdM0Bds0NIfHY12-13" vertex="1">
          <mxGeometry width="470" height="30" as="geometry" />
        </mxCell>
        <mxCell id="cykdBwdM0Bds0NIfHY12-15" value="2" style="shape=partialRectangle;html=1;whiteSpace=wrap;connectable=0;overflow=hidden;fillColor=none;top=0;left=0;bottom=0;right=0;pointerEvents=1;align=right;spacingLeft=3;fontColor=#FFFFFF;" parent="cykdBwdM0Bds0NIfHY12-14" vertex="1">
          <mxGeometry width="20" height="30" as="geometry">
            <mxRectangle width="20" height="30" as="alternateBounds" />
          </mxGeometry>
        </mxCell>
        <mxCell id="cykdBwdM0Bds0NIfHY12-16" value="Service" style="shape=partialRectangle;html=1;whiteSpace=wrap;connectable=0;strokeColor=#BD0100;overflow=hidden;fillColor=none;top=0;left=0;bottom=0;right=0;pointerEvents=1;align=left;spacingLeft=3;fontColor=#FFFFFF;" parent="cykdBwdM0Bds0NIfHY12-14" vertex="1">
          <mxGeometry x="20" width="160" height="30" as="geometry">
            <mxRectangle width="160" height="30" as="alternateBounds" />
          </mxGeometry>
        </mxCell>
        <mxCell id="cykdBwdM0Bds0NIfHY12-17" value="UD_BDP_USR_SERVER" style="shape=partialRectangle;html=1;whiteSpace=wrap;connectable=0;strokeColor=#BD0100;overflow=hidden;fillColor=none;top=0;left=0;bottom=0;right=0;pointerEvents=1;align=left;spacingLeft=3;fontColor=#FFFFFF;" parent="cykdBwdM0Bds0NIfHY12-14" vertex="1">
          <mxGeometry x="180" width="190" height="30" as="geometry">
            <mxRectangle width="190" height="30" as="alternateBounds" />
          </mxGeometry>
        </mxCell>
        <mxCell id="cykdBwdM0Bds0NIfHY12-18" value="long" style="shape=partialRectangle;html=1;whiteSpace=wrap;connectable=0;strokeColor=#BD0100;overflow=hidden;fillColor=none;top=0;left=0;bottom=0;right=0;pointerEvents=1;align=left;spacingLeft=3;fontColor=#FFFFFF;" parent="cykdBwdM0Bds0NIfHY12-14" vertex="1">
          <mxGeometry x="370" width="45" height="30" as="geometry">
            <mxRectangle width="45" height="30" as="alternateBounds" />
          </mxGeometry>
        </mxCell>
        <mxCell id="cykdBwdM0Bds0NIfHY12-29" style="shape=partialRectangle;html=1;whiteSpace=wrap;connectable=0;strokeColor=#BD0100;overflow=hidden;fillColor=none;top=0;left=0;bottom=0;right=0;pointerEvents=1;align=left;spacingLeft=3;fontColor=#FFFFFF;" parent="cykdBwdM0Bds0NIfHY12-14" vertex="1">
          <mxGeometry x="415" width="55" height="30" as="geometry">
            <mxRectangle width="55" height="30" as="alternateBounds" />
          </mxGeometry>
        </mxCell>
        <mxCell id="Jod2S5wvBKbCrdjLZ-1n-2" style="shape=tableRow;horizontal=0;startSize=0;swimlaneHead=0;swimlaneBody=0;strokeColor=inherit;top=0;left=0;bottom=0;right=0;collapsible=0;dropTarget=0;fillColor=none;points=[[0,0.5],[1,0.5]];portConstraint=eastwest;fontColor=#FFFFFF;" parent="cykdBwdM0Bds0NIfHY12-13" vertex="1">
          <mxGeometry y="30" width="470" height="30" as="geometry" />
        </mxCell>
        <mxCell id="Jod2S5wvBKbCrdjLZ-1n-3" value="4" style="shape=partialRectangle;html=1;whiteSpace=wrap;connectable=0;strokeColor=inherit;overflow=hidden;fillColor=none;top=0;left=0;bottom=0;right=0;pointerEvents=1;align=right;spacingLeft=3;fontColor=#FFFFFF;" parent="Jod2S5wvBKbCrdjLZ-1n-2" vertex="1">
          <mxGeometry width="20" height="30" as="geometry">
            <mxRectangle width="20" height="30" as="alternateBounds" />
          </mxGeometry>
        </mxCell>
        <mxCell id="Jod2S5wvBKbCrdjLZ-1n-4" value="Identifier" style="shape=partialRectangle;html=1;whiteSpace=wrap;connectable=0;strokeColor=inherit;overflow=hidden;fillColor=none;top=0;left=0;bottom=0;right=0;pointerEvents=1;align=left;spacingLeft=3;fontColor=#FFFFFF;" parent="Jod2S5wvBKbCrdjLZ-1n-2" vertex="1">
          <mxGeometry x="20" width="160" height="30" as="geometry">
            <mxRectangle width="160" height="30" as="alternateBounds" />
          </mxGeometry>
        </mxCell>
        <mxCell id="Jod2S5wvBKbCrdjLZ-1n-5" value="UD_BDP_USR_SID" style="shape=partialRectangle;html=1;whiteSpace=wrap;connectable=0;strokeColor=inherit;overflow=hidden;fillColor=none;top=0;left=0;bottom=0;right=0;pointerEvents=1;align=left;spacingLeft=3;fontColor=#FFFFFF;" parent="Jod2S5wvBKbCrdjLZ-1n-2" vertex="1">
          <mxGeometry x="180" width="190" height="30" as="geometry">
            <mxRectangle width="190" height="30" as="alternateBounds" />
          </mxGeometry>
        </mxCell>
        <mxCell id="Jod2S5wvBKbCrdjLZ-1n-6" value="String" style="shape=partialRectangle;html=1;whiteSpace=wrap;connectable=0;strokeColor=inherit;overflow=hidden;fillColor=none;top=0;left=0;bottom=0;right=0;pointerEvents=1;align=left;spacingLeft=3;fontColor=#FFFFFF;" parent="Jod2S5wvBKbCrdjLZ-1n-2" vertex="1">
          <mxGeometry x="370" width="45" height="30" as="geometry">
            <mxRectangle width="45" height="30" as="alternateBounds" />
          </mxGeometry>
        </mxCell>
        <mxCell id="Jod2S5wvBKbCrdjLZ-1n-7" value="48" style="shape=partialRectangle;html=1;whiteSpace=wrap;connectable=0;strokeColor=inherit;overflow=hidden;fillColor=none;top=0;left=0;bottom=0;right=0;pointerEvents=1;align=right;spacingLeft=3;fontColor=#FFFFFF;spacingRight=3;" parent="Jod2S5wvBKbCrdjLZ-1n-2" vertex="1">
          <mxGeometry x="415" width="55" height="30" as="geometry">
            <mxRectangle width="55" height="30" as="alternateBounds" />
          </mxGeometry>
        </mxCell>
        <mxCell id="Jod2S5wvBKbCrdjLZ-1n-140" style="shape=tableRow;horizontal=0;startSize=0;swimlaneHead=0;swimlaneBody=0;strokeColor=inherit;top=0;left=0;bottom=0;right=0;collapsible=0;dropTarget=0;fillColor=none;points=[[0,0.5],[1,0.5]];portConstraint=eastwest;fontColor=#FFFFFF;" parent="cykdBwdM0Bds0NIfHY12-13" vertex="1">
          <mxGeometry y="60" width="470" height="30" as="geometry" />
        </mxCell>
        <mxCell id="Jod2S5wvBKbCrdjLZ-1n-141" value="6" style="shape=partialRectangle;html=1;whiteSpace=wrap;connectable=0;strokeColor=inherit;overflow=hidden;fillColor=none;top=0;left=0;bottom=0;right=0;pointerEvents=1;align=right;spacingLeft=3;fontColor=#FFFFFF;" parent="Jod2S5wvBKbCrdjLZ-1n-140" vertex="1">
          <mxGeometry width="20" height="30" as="geometry">
            <mxRectangle width="20" height="30" as="alternateBounds" />
          </mxGeometry>
        </mxCell>
        <mxCell id="Jod2S5wvBKbCrdjLZ-1n-142" value="Type" style="shape=partialRectangle;html=1;whiteSpace=wrap;connectable=0;strokeColor=inherit;overflow=hidden;fillColor=none;top=0;left=0;bottom=0;right=0;pointerEvents=1;align=left;spacingLeft=3;fontColor=#FFFFFF;" parent="Jod2S5wvBKbCrdjLZ-1n-140" vertex="1">
          <mxGeometry x="20" width="160" height="30" as="geometry">
            <mxRectangle width="160" height="30" as="alternateBounds" />
          </mxGeometry>
        </mxCell>
        <mxCell id="Jod2S5wvBKbCrdjLZ-1n-143" value="UD_BDP_USR_TYPE" style="shape=partialRectangle;html=1;whiteSpace=wrap;connectable=0;strokeColor=inherit;overflow=hidden;fillColor=none;top=0;left=0;bottom=0;right=0;pointerEvents=1;align=left;spacingLeft=3;fontColor=#FFFFFF;" parent="Jod2S5wvBKbCrdjLZ-1n-140" vertex="1">
          <mxGeometry x="180" width="190" height="30" as="geometry">
            <mxRectangle width="190" height="30" as="alternateBounds" />
          </mxGeometry>
        </mxCell>
        <mxCell id="Jod2S5wvBKbCrdjLZ-1n-144" value="String" style="shape=partialRectangle;html=1;whiteSpace=wrap;connectable=0;strokeColor=inherit;overflow=hidden;fillColor=none;top=0;left=0;bottom=0;right=0;pointerEvents=1;align=left;spacingLeft=3;fontColor=#FFFFFF;" parent="Jod2S5wvBKbCrdjLZ-1n-140" vertex="1">
          <mxGeometry x="370" width="45" height="30" as="geometry">
            <mxRectangle width="45" height="30" as="alternateBounds" />
          </mxGeometry>
        </mxCell>
        <mxCell id="Jod2S5wvBKbCrdjLZ-1n-145" value="32" style="shape=partialRectangle;html=1;whiteSpace=wrap;connectable=0;strokeColor=inherit;overflow=hidden;fillColor=none;top=0;left=0;bottom=0;right=0;pointerEvents=1;align=right;spacingLeft=3;fontColor=#FFFFFF;spacingRight=3;" parent="Jod2S5wvBKbCrdjLZ-1n-140" vertex="1">
          <mxGeometry x="415" width="55" height="30" as="geometry">
            <mxRectangle width="55" height="30" as="alternateBounds" />
          </mxGeometry>
        </mxCell>
        <mxCell id="cykdBwdM0Bds0NIfHY12-31" style="shape=tableRow;horizontal=0;startSize=0;swimlaneHead=0;swimlaneBody=0;strokeColor=inherit;top=0;left=0;bottom=0;right=0;collapsible=0;dropTarget=0;fillColor=none;points=[[0,0.5],[1,0.5]];portConstraint=eastwest;fontColor=#FFFFFF;" parent="cykdBwdM0Bds0NIfHY12-13" vertex="1">
          <mxGeometry y="90" width="470" height="30" as="geometry" />
        </mxCell>
        <mxCell id="cykdBwdM0Bds0NIfHY12-32" value="8" style="shape=partialRectangle;html=1;whiteSpace=wrap;connectable=0;strokeColor=inherit;overflow=hidden;fillColor=none;top=0;left=0;bottom=0;right=0;pointerEvents=1;align=right;spacingLeft=3;fontColor=#FFFFFF;" parent="cykdBwdM0Bds0NIfHY12-31" vertex="1">
          <mxGeometry width="20" height="30" as="geometry">
            <mxRectangle width="20" height="30" as="alternateBounds" />
          </mxGeometry>
        </mxCell>
        <mxCell id="cykdBwdM0Bds0NIfHY12-33" value="User Name" style="shape=partialRectangle;html=1;whiteSpace=wrap;connectable=0;strokeColor=inherit;overflow=hidden;fillColor=none;top=0;left=0;bottom=0;right=0;pointerEvents=1;align=left;spacingLeft=3;fontColor=#FFFFFF;" parent="cykdBwdM0Bds0NIfHY12-31" vertex="1">
          <mxGeometry x="20" width="160" height="30" as="geometry">
            <mxRectangle width="160" height="30" as="alternateBounds" />
          </mxGeometry>
        </mxCell>
        <mxCell id="cykdBwdM0Bds0NIfHY12-34" value="UD_BDP_USR_NAME" style="shape=partialRectangle;html=1;whiteSpace=wrap;connectable=0;strokeColor=inherit;overflow=hidden;fillColor=none;top=0;left=0;bottom=0;right=0;pointerEvents=1;align=left;spacingLeft=3;fontColor=#FFFFFF;" parent="cykdBwdM0Bds0NIfHY12-31" vertex="1">
          <mxGeometry x="180" width="190" height="30" as="geometry">
            <mxRectangle width="190" height="30" as="alternateBounds" />
          </mxGeometry>
        </mxCell>
        <mxCell id="cykdBwdM0Bds0NIfHY12-35" value="String" style="shape=partialRectangle;html=1;whiteSpace=wrap;connectable=0;strokeColor=inherit;overflow=hidden;fillColor=none;top=0;left=0;bottom=0;right=0;pointerEvents=1;align=left;spacingLeft=3;fontColor=#FFFFFF;" parent="cykdBwdM0Bds0NIfHY12-31" vertex="1">
          <mxGeometry x="370" width="45" height="30" as="geometry">
            <mxRectangle width="45" height="30" as="alternateBounds" />
          </mxGeometry>
        </mxCell>
        <mxCell id="cykdBwdM0Bds0NIfHY12-36" value="256" style="shape=partialRectangle;html=1;whiteSpace=wrap;connectable=0;strokeColor=inherit;overflow=hidden;fillColor=none;top=0;left=0;bottom=0;right=0;pointerEvents=1;align=right;spacingLeft=3;fontColor=#FFFFFF;spacingRight=3;" parent="cykdBwdM0Bds0NIfHY12-31" vertex="1">
          <mxGeometry x="415" width="55" height="30" as="geometry">
            <mxRectangle width="55" height="30" as="alternateBounds" />
          </mxGeometry>
        </mxCell>
        <mxCell id="cykdBwdM0Bds0NIfHY12-37" style="shape=tableRow;horizontal=0;startSize=0;swimlaneHead=0;swimlaneBody=0;strokeColor=inherit;top=0;left=0;bottom=0;right=0;collapsible=0;dropTarget=0;fillColor=none;points=[[0,0.5],[1,0.5]];portConstraint=eastwest;fontColor=#FFFFFF;" parent="cykdBwdM0Bds0NIfHY12-13" vertex="1">
          <mxGeometry y="120" width="470" height="30" as="geometry" />
        </mxCell>
        <mxCell id="cykdBwdM0Bds0NIfHY12-38" value="10" style="shape=partialRectangle;html=1;whiteSpace=wrap;connectable=0;strokeColor=inherit;overflow=hidden;fillColor=none;top=0;left=0;bottom=0;right=0;pointerEvents=1;align=right;spacingLeft=3;fontColor=#FFFFFF;" parent="cykdBwdM0Bds0NIfHY12-37" vertex="1">
          <mxGeometry width="20" height="30" as="geometry">
            <mxRectangle width="20" height="30" as="alternateBounds" />
          </mxGeometry>
        </mxCell>
        <mxCell id="cykdBwdM0Bds0NIfHY12-39" value="Password" style="shape=partialRectangle;html=1;whiteSpace=wrap;connectable=0;strokeColor=inherit;overflow=hidden;fillColor=none;top=0;left=0;bottom=0;right=0;pointerEvents=1;align=left;spacingLeft=3;fontColor=#FFFFFF;" parent="cykdBwdM0Bds0NIfHY12-37" vertex="1">
          <mxGeometry x="20" width="160" height="30" as="geometry">
            <mxRectangle width="160" height="30" as="alternateBounds" />
          </mxGeometry>
        </mxCell>
        <mxCell id="cykdBwdM0Bds0NIfHY12-40" value="UD_BDP_USR_PASSWORD" style="shape=partialRectangle;html=1;whiteSpace=wrap;connectable=0;strokeColor=inherit;overflow=hidden;fillColor=none;top=0;left=0;bottom=0;right=0;pointerEvents=1;align=left;spacingLeft=3;fontColor=#FFFFFF;" parent="cykdBwdM0Bds0NIfHY12-37" vertex="1">
          <mxGeometry x="180" width="190" height="30" as="geometry">
            <mxRectangle width="190" height="30" as="alternateBounds" />
          </mxGeometry>
        </mxCell>
        <mxCell id="cykdBwdM0Bds0NIfHY12-41" value="String" style="shape=partialRectangle;html=1;whiteSpace=wrap;connectable=0;strokeColor=inherit;overflow=hidden;fillColor=none;top=0;left=0;bottom=0;right=0;pointerEvents=1;align=left;spacingLeft=3;fontColor=#FFFFFF;" parent="cykdBwdM0Bds0NIfHY12-37" vertex="1">
          <mxGeometry x="370" width="45" height="30" as="geometry">
            <mxRectangle width="45" height="30" as="alternateBounds" />
          </mxGeometry>
        </mxCell>
        <mxCell id="cykdBwdM0Bds0NIfHY12-42" value="256" style="shape=partialRectangle;html=1;whiteSpace=wrap;connectable=0;strokeColor=inherit;overflow=hidden;fillColor=none;top=0;left=0;bottom=0;right=0;pointerEvents=1;align=right;spacingLeft=3;fontColor=#FFFFFF;spacingRight=3;" parent="cykdBwdM0Bds0NIfHY12-37" vertex="1">
          <mxGeometry x="415" width="55" height="30" as="geometry">
            <mxRectangle width="55" height="30" as="alternateBounds" />
          </mxGeometry>
        </mxCell>
        <mxCell id="Jod2S5wvBKbCrdjLZ-1n-57" style="shape=tableRow;horizontal=0;startSize=0;swimlaneHead=0;swimlaneBody=0;strokeColor=inherit;top=0;left=0;bottom=0;right=0;collapsible=0;dropTarget=0;fillColor=none;points=[[0,0.5],[1,0.5]];portConstraint=eastwest;fontColor=#FFFFFF;" parent="cykdBwdM0Bds0NIfHY12-13" vertex="1">
          <mxGeometry y="150" width="470" height="30" as="geometry" />
        </mxCell>
        <mxCell id="Jod2S5wvBKbCrdjLZ-1n-58" value="12" style="shape=partialRectangle;html=1;whiteSpace=wrap;connectable=0;strokeColor=inherit;overflow=hidden;fillColor=none;top=0;left=0;bottom=0;right=0;pointerEvents=1;align=right;spacingLeft=3;fontColor=#FFFFFF;" parent="Jod2S5wvBKbCrdjLZ-1n-57" vertex="1">
          <mxGeometry width="20" height="30" as="geometry">
            <mxRectangle width="20" height="30" as="alternateBounds" />
          </mxGeometry>
        </mxCell>
        <mxCell id="Jod2S5wvBKbCrdjLZ-1n-59" value="sAMAccountName" style="shape=partialRectangle;html=1;whiteSpace=wrap;connectable=0;strokeColor=inherit;overflow=hidden;fillColor=none;top=0;left=0;bottom=0;right=0;pointerEvents=1;align=left;spacingLeft=3;fontColor=#FFFFFF;" parent="Jod2S5wvBKbCrdjLZ-1n-57" vertex="1">
          <mxGeometry x="20" width="160" height="30" as="geometry">
            <mxRectangle width="160" height="30" as="alternateBounds" />
          </mxGeometry>
        </mxCell>
        <mxCell id="Jod2S5wvBKbCrdjLZ-1n-60" value="UD_BDP_USR_SAM" style="shape=partialRectangle;html=1;whiteSpace=wrap;connectable=0;strokeColor=inherit;overflow=hidden;fillColor=none;top=0;left=0;bottom=0;right=0;pointerEvents=1;align=left;spacingLeft=3;fontColor=#FFFFFF;" parent="Jod2S5wvBKbCrdjLZ-1n-57" vertex="1">
          <mxGeometry x="180" width="190" height="30" as="geometry">
            <mxRectangle width="190" height="30" as="alternateBounds" />
          </mxGeometry>
        </mxCell>
        <mxCell id="Jod2S5wvBKbCrdjLZ-1n-61" value="String" style="shape=partialRectangle;html=1;whiteSpace=wrap;connectable=0;strokeColor=inherit;overflow=hidden;fillColor=none;top=0;left=0;bottom=0;right=0;pointerEvents=1;align=left;spacingLeft=3;fontColor=#FFFFFF;" parent="Jod2S5wvBKbCrdjLZ-1n-57" vertex="1">
          <mxGeometry x="370" width="45" height="30" as="geometry">
            <mxRectangle width="45" height="30" as="alternateBounds" />
          </mxGeometry>
        </mxCell>
        <mxCell id="Jod2S5wvBKbCrdjLZ-1n-62" value="256" style="shape=partialRectangle;html=1;whiteSpace=wrap;connectable=0;strokeColor=inherit;overflow=hidden;fillColor=none;top=0;left=0;bottom=0;right=0;pointerEvents=1;align=right;spacingLeft=3;fontColor=#FFFFFF;spacingRight=3;" parent="Jod2S5wvBKbCrdjLZ-1n-57" vertex="1">
          <mxGeometry x="415" width="55" height="30" as="geometry">
            <mxRectangle width="55" height="30" as="alternateBounds" />
          </mxGeometry>
        </mxCell>
        <mxCell id="cykdBwdM0Bds0NIfHY12-43" style="shape=tableRow;horizontal=0;startSize=0;swimlaneHead=0;swimlaneBody=0;strokeColor=inherit;top=0;left=0;bottom=0;right=0;collapsible=0;dropTarget=0;fillColor=none;points=[[0,0.5],[1,0.5]];portConstraint=eastwest;fontColor=#FFFFFF;" parent="cykdBwdM0Bds0NIfHY12-13" vertex="1">
          <mxGeometry y="180" width="470" height="30" as="geometry" />
        </mxCell>
        <mxCell id="cykdBwdM0Bds0NIfHY12-44" value="14" style="shape=partialRectangle;html=1;whiteSpace=wrap;connectable=0;strokeColor=inherit;overflow=hidden;fillColor=none;top=0;left=0;bottom=0;right=0;pointerEvents=1;align=right;spacingLeft=3;fontColor=#FFFFFF;" parent="cykdBwdM0Bds0NIfHY12-43" vertex="1">
          <mxGeometry width="20" height="30" as="geometry">
            <mxRectangle width="20" height="30" as="alternateBounds" />
          </mxGeometry>
        </mxCell>
        <mxCell id="cykdBwdM0Bds0NIfHY12-45" value="Common Name" style="shape=partialRectangle;html=1;whiteSpace=wrap;connectable=0;strokeColor=inherit;overflow=hidden;fillColor=none;top=0;left=0;bottom=0;right=0;pointerEvents=1;align=left;spacingLeft=3;fontColor=#FFFFFF;" parent="cykdBwdM0Bds0NIfHY12-43" vertex="1">
          <mxGeometry x="20" width="160" height="30" as="geometry">
            <mxRectangle width="160" height="30" as="alternateBounds" />
          </mxGeometry>
        </mxCell>
        <mxCell id="cykdBwdM0Bds0NIfHY12-46" value="UD_BDP_USR_CN" style="shape=partialRectangle;html=1;whiteSpace=wrap;connectable=0;strokeColor=inherit;overflow=hidden;fillColor=none;top=0;left=0;bottom=0;right=0;pointerEvents=1;align=left;spacingLeft=3;fontColor=#FFFFFF;" parent="cykdBwdM0Bds0NIfHY12-43" vertex="1">
          <mxGeometry x="180" width="190" height="30" as="geometry">
            <mxRectangle width="190" height="30" as="alternateBounds" />
          </mxGeometry>
        </mxCell>
        <mxCell id="cykdBwdM0Bds0NIfHY12-47" value="String" style="shape=partialRectangle;html=1;whiteSpace=wrap;connectable=0;strokeColor=inherit;overflow=hidden;fillColor=none;top=0;left=0;bottom=0;right=0;pointerEvents=1;align=left;spacingLeft=3;fontColor=#FFFFFF;" parent="cykdBwdM0Bds0NIfHY12-43" vertex="1">
          <mxGeometry x="370" width="45" height="30" as="geometry">
            <mxRectangle width="45" height="30" as="alternateBounds" />
          </mxGeometry>
        </mxCell>
        <mxCell id="cykdBwdM0Bds0NIfHY12-48" value="256" style="shape=partialRectangle;html=1;whiteSpace=wrap;connectable=0;strokeColor=inherit;overflow=hidden;fillColor=none;top=0;left=0;bottom=0;right=0;pointerEvents=1;align=right;spacingLeft=3;fontColor=#FFFFFF;spacingRight=3;" parent="cykdBwdM0Bds0NIfHY12-43" vertex="1">
          <mxGeometry x="415" width="55" height="30" as="geometry">
            <mxRectangle width="55" height="30" as="alternateBounds" />
          </mxGeometry>
        </mxCell>
        <mxCell id="cykdBwdM0Bds0NIfHY12-49" style="shape=tableRow;horizontal=0;startSize=0;swimlaneHead=0;swimlaneBody=0;strokeColor=inherit;top=0;left=0;bottom=0;right=0;collapsible=0;dropTarget=0;fillColor=none;points=[[0,0.5],[1,0.5]];portConstraint=eastwest;fontColor=#FFFFFF;" parent="cykdBwdM0Bds0NIfHY12-13" vertex="1">
          <mxGeometry y="210" width="470" height="30" as="geometry" />
        </mxCell>
        <mxCell id="cykdBwdM0Bds0NIfHY12-50" value="16" style="shape=partialRectangle;html=1;whiteSpace=wrap;connectable=0;strokeColor=inherit;overflow=hidden;fillColor=none;top=0;left=0;bottom=0;right=0;pointerEvents=1;align=right;spacingLeft=3;fontColor=#FFFFFF;" parent="cykdBwdM0Bds0NIfHY12-49" vertex="1">
          <mxGeometry width="20" height="30" as="geometry">
            <mxRectangle width="20" height="30" as="alternateBounds" />
          </mxGeometry>
        </mxCell>
        <mxCell id="cykdBwdM0Bds0NIfHY12-51" value="User Principal Name" style="shape=partialRectangle;html=1;whiteSpace=wrap;connectable=0;strokeColor=inherit;overflow=hidden;fillColor=none;top=0;left=0;bottom=0;right=0;pointerEvents=1;align=left;spacingLeft=3;fontColor=#FFFFFF;" parent="cykdBwdM0Bds0NIfHY12-49" vertex="1">
          <mxGeometry x="20" width="160" height="30" as="geometry">
            <mxRectangle width="160" height="30" as="alternateBounds" />
          </mxGeometry>
        </mxCell>
        <mxCell id="cykdBwdM0Bds0NIfHY12-52" value="UD_BDP_USR_UPN" style="shape=partialRectangle;html=1;whiteSpace=wrap;connectable=0;strokeColor=inherit;overflow=hidden;fillColor=none;top=0;left=0;bottom=0;right=0;pointerEvents=1;align=left;spacingLeft=3;fontColor=#FFFFFF;" parent="cykdBwdM0Bds0NIfHY12-49" vertex="1">
          <mxGeometry x="180" width="190" height="30" as="geometry">
            <mxRectangle width="190" height="30" as="alternateBounds" />
          </mxGeometry>
        </mxCell>
        <mxCell id="cykdBwdM0Bds0NIfHY12-53" value="String" style="shape=partialRectangle;html=1;whiteSpace=wrap;connectable=0;strokeColor=inherit;overflow=hidden;fillColor=none;top=0;left=0;bottom=0;right=0;pointerEvents=1;align=left;spacingLeft=3;fontColor=#FFFFFF;" parent="cykdBwdM0Bds0NIfHY12-49" vertex="1">
          <mxGeometry x="370" width="45" height="30" as="geometry">
            <mxRectangle width="45" height="30" as="alternateBounds" />
          </mxGeometry>
        </mxCell>
        <mxCell id="cykdBwdM0Bds0NIfHY12-54" value="256" style="shape=partialRectangle;html=1;whiteSpace=wrap;connectable=0;strokeColor=inherit;overflow=hidden;fillColor=none;top=0;left=0;bottom=0;right=0;pointerEvents=1;align=right;spacingLeft=3;fontColor=#FFFFFF;spacingRight=3;" parent="cykdBwdM0Bds0NIfHY12-49" vertex="1">
          <mxGeometry x="415" width="55" height="30" as="geometry">
            <mxRectangle width="55" height="30" as="alternateBounds" />
          </mxGeometry>
        </mxCell>
        <mxCell id="Jod2S5wvBKbCrdjLZ-1n-10" style="shape=tableRow;horizontal=0;startSize=0;swimlaneHead=0;swimlaneBody=0;strokeColor=inherit;top=0;left=0;bottom=0;right=0;collapsible=0;dropTarget=0;fillColor=none;points=[[0,0.5],[1,0.5]];portConstraint=eastwest;fontColor=#FFFFFF;" parent="cykdBwdM0Bds0NIfHY12-13" vertex="1">
          <mxGeometry y="240" width="470" height="30" as="geometry" />
        </mxCell>
        <mxCell id="Jod2S5wvBKbCrdjLZ-1n-11" value="18" style="shape=partialRectangle;html=1;whiteSpace=wrap;connectable=0;strokeColor=inherit;overflow=hidden;fillColor=none;top=0;left=0;bottom=0;right=0;pointerEvents=1;align=right;spacingLeft=3;fontColor=#FFFFFF;" parent="Jod2S5wvBKbCrdjLZ-1n-10" vertex="1">
          <mxGeometry width="20" height="30" as="geometry">
            <mxRectangle width="20" height="30" as="alternateBounds" />
          </mxGeometry>
        </mxCell>
        <mxCell id="Jod2S5wvBKbCrdjLZ-1n-12" value="Display Name" style="shape=partialRectangle;html=1;whiteSpace=wrap;connectable=0;strokeColor=inherit;overflow=hidden;fillColor=none;top=0;left=0;bottom=0;right=0;pointerEvents=1;align=left;spacingLeft=3;fontColor=#FFFFFF;" parent="Jod2S5wvBKbCrdjLZ-1n-10" vertex="1">
          <mxGeometry x="20" width="160" height="30" as="geometry">
            <mxRectangle width="160" height="30" as="alternateBounds" />
          </mxGeometry>
        </mxCell>
        <mxCell id="Jod2S5wvBKbCrdjLZ-1n-13" value="UD_BDP_USR_DISPLAY_NAME" style="shape=partialRectangle;html=1;whiteSpace=wrap;connectable=0;strokeColor=inherit;overflow=hidden;fillColor=none;top=0;left=0;bottom=0;right=0;pointerEvents=1;align=left;spacingLeft=3;fontColor=#FFFFFF;" parent="Jod2S5wvBKbCrdjLZ-1n-10" vertex="1">
          <mxGeometry x="180" width="190" height="30" as="geometry">
            <mxRectangle width="190" height="30" as="alternateBounds" />
          </mxGeometry>
        </mxCell>
        <mxCell id="Jod2S5wvBKbCrdjLZ-1n-14" value="String" style="shape=partialRectangle;html=1;whiteSpace=wrap;connectable=0;strokeColor=inherit;overflow=hidden;fillColor=none;top=0;left=0;bottom=0;right=0;pointerEvents=1;align=left;spacingLeft=3;fontColor=#FFFFFF;" parent="Jod2S5wvBKbCrdjLZ-1n-10" vertex="1">
          <mxGeometry x="370" width="45" height="30" as="geometry">
            <mxRectangle width="45" height="30" as="alternateBounds" />
          </mxGeometry>
        </mxCell>
        <mxCell id="Jod2S5wvBKbCrdjLZ-1n-15" value="512" style="shape=partialRectangle;html=1;whiteSpace=wrap;connectable=0;strokeColor=inherit;overflow=hidden;fillColor=none;top=0;left=0;bottom=0;right=0;pointerEvents=1;align=right;spacingLeft=3;fontColor=#FFFFFF;spacingRight=3;" parent="Jod2S5wvBKbCrdjLZ-1n-10" vertex="1">
          <mxGeometry x="415" width="55" height="30" as="geometry">
            <mxRectangle width="55" height="30" as="alternateBounds" />
          </mxGeometry>
        </mxCell>
        <mxCell id="Jod2S5wvBKbCrdjLZ-1n-16" style="shape=tableRow;horizontal=0;startSize=0;swimlaneHead=0;swimlaneBody=0;strokeColor=inherit;top=0;left=0;bottom=0;right=0;collapsible=0;dropTarget=0;fillColor=none;points=[[0,0.5],[1,0.5]];portConstraint=eastwest;fontColor=#FFFFFF;" parent="cykdBwdM0Bds0NIfHY12-13" vertex="1">
          <mxGeometry y="270" width="470" height="30" as="geometry" />
        </mxCell>
        <mxCell id="Jod2S5wvBKbCrdjLZ-1n-17" value="20" style="shape=partialRectangle;html=1;whiteSpace=wrap;connectable=0;strokeColor=inherit;overflow=hidden;fillColor=none;top=0;left=0;bottom=0;right=0;pointerEvents=1;align=right;spacingLeft=3;fontColor=#FFFFFF;" parent="Jod2S5wvBKbCrdjLZ-1n-16" vertex="1">
          <mxGeometry width="20" height="30" as="geometry">
            <mxRectangle width="20" height="30" as="alternateBounds" />
          </mxGeometry>
        </mxCell>
        <mxCell id="Jod2S5wvBKbCrdjLZ-1n-18" value="Title" style="shape=partialRectangle;html=1;whiteSpace=wrap;connectable=0;strokeColor=inherit;overflow=hidden;fillColor=none;top=0;left=0;bottom=0;right=0;pointerEvents=1;align=left;spacingLeft=3;fontColor=#FFFFFF;" parent="Jod2S5wvBKbCrdjLZ-1n-16" vertex="1">
          <mxGeometry x="20" width="160" height="30" as="geometry">
            <mxRectangle width="160" height="30" as="alternateBounds" />
          </mxGeometry>
        </mxCell>
        <mxCell id="Jod2S5wvBKbCrdjLZ-1n-19" value="UD_BDP_USR_TITLE" style="shape=partialRectangle;html=1;whiteSpace=wrap;connectable=0;strokeColor=inherit;overflow=hidden;fillColor=none;top=0;left=0;bottom=0;right=0;pointerEvents=1;align=left;spacingLeft=3;fontColor=#FFFFFF;" parent="Jod2S5wvBKbCrdjLZ-1n-16" vertex="1">
          <mxGeometry x="180" width="190" height="30" as="geometry">
            <mxRectangle width="190" height="30" as="alternateBounds" />
          </mxGeometry>
        </mxCell>
        <mxCell id="Jod2S5wvBKbCrdjLZ-1n-20" value="String" style="shape=partialRectangle;html=1;whiteSpace=wrap;connectable=0;strokeColor=inherit;overflow=hidden;fillColor=none;top=0;left=0;bottom=0;right=0;pointerEvents=1;align=left;spacingLeft=3;fontColor=#FFFFFF;" parent="Jod2S5wvBKbCrdjLZ-1n-16" vertex="1">
          <mxGeometry x="370" width="45" height="30" as="geometry">
            <mxRectangle width="45" height="30" as="alternateBounds" />
          </mxGeometry>
        </mxCell>
        <mxCell id="Jod2S5wvBKbCrdjLZ-1n-21" value="256" style="shape=partialRectangle;html=1;whiteSpace=wrap;connectable=0;strokeColor=inherit;overflow=hidden;fillColor=none;top=0;left=0;bottom=0;right=0;pointerEvents=1;align=right;spacingLeft=3;fontColor=#FFFFFF;spacingRight=3;" parent="Jod2S5wvBKbCrdjLZ-1n-16" vertex="1">
          <mxGeometry x="415" width="55" height="30" as="geometry">
            <mxRectangle width="55" height="30" as="alternateBounds" />
          </mxGeometry>
        </mxCell>
        <mxCell id="cykdBwdM0Bds0NIfHY12-55" style="shape=tableRow;horizontal=0;startSize=0;swimlaneHead=0;swimlaneBody=0;strokeColor=inherit;top=0;left=0;bottom=0;right=0;collapsible=0;dropTarget=0;fillColor=none;points=[[0,0.5],[1,0.5]];portConstraint=eastwest;fontColor=#FFFFFF;" parent="cykdBwdM0Bds0NIfHY12-13" vertex="1">
          <mxGeometry y="300" width="470" height="30" as="geometry" />
        </mxCell>
        <mxCell id="cykdBwdM0Bds0NIfHY12-56" value="22" style="shape=partialRectangle;html=1;whiteSpace=wrap;connectable=0;strokeColor=inherit;overflow=hidden;fillColor=none;top=0;left=0;bottom=0;right=0;pointerEvents=1;align=right;spacingLeft=3;fontColor=#FFFFFF;" parent="cykdBwdM0Bds0NIfHY12-55" vertex="1">
          <mxGeometry width="20" height="30" as="geometry">
            <mxRectangle width="20" height="30" as="alternateBounds" />
          </mxGeometry>
        </mxCell>
        <mxCell id="cykdBwdM0Bds0NIfHY12-57" value="Last Name" style="shape=partialRectangle;html=1;whiteSpace=wrap;connectable=0;strokeColor=inherit;overflow=hidden;fillColor=none;top=0;left=0;bottom=0;right=0;pointerEvents=1;align=left;spacingLeft=3;fontColor=#FFFFFF;" parent="cykdBwdM0Bds0NIfHY12-55" vertex="1">
          <mxGeometry x="20" width="160" height="30" as="geometry">
            <mxRectangle width="160" height="30" as="alternateBounds" />
          </mxGeometry>
        </mxCell>
        <mxCell id="cykdBwdM0Bds0NIfHY12-58" value="UD_BDP_USR_SN" style="shape=partialRectangle;html=1;whiteSpace=wrap;connectable=0;strokeColor=inherit;overflow=hidden;fillColor=none;top=0;left=0;bottom=0;right=0;pointerEvents=1;align=left;spacingLeft=3;fontColor=#FFFFFF;" parent="cykdBwdM0Bds0NIfHY12-55" vertex="1">
          <mxGeometry x="180" width="190" height="30" as="geometry">
            <mxRectangle width="190" height="30" as="alternateBounds" />
          </mxGeometry>
        </mxCell>
        <mxCell id="cykdBwdM0Bds0NIfHY12-59" value="String" style="shape=partialRectangle;html=1;whiteSpace=wrap;connectable=0;strokeColor=inherit;overflow=hidden;fillColor=none;top=0;left=0;bottom=0;right=0;pointerEvents=1;align=left;spacingLeft=3;fontColor=#FFFFFF;" parent="cykdBwdM0Bds0NIfHY12-55" vertex="1">
          <mxGeometry x="370" width="45" height="30" as="geometry">
            <mxRectangle width="45" height="30" as="alternateBounds" />
          </mxGeometry>
        </mxCell>
        <mxCell id="cykdBwdM0Bds0NIfHY12-60" value="256" style="shape=partialRectangle;html=1;whiteSpace=wrap;connectable=0;strokeColor=inherit;overflow=hidden;fillColor=none;top=0;left=0;bottom=0;right=0;pointerEvents=1;align=right;spacingLeft=3;fontColor=#FFFFFF;spacingRight=3;" parent="cykdBwdM0Bds0NIfHY12-55" vertex="1">
          <mxGeometry x="415" width="55" height="30" as="geometry">
            <mxRectangle width="55" height="30" as="alternateBounds" />
          </mxGeometry>
        </mxCell>
        <mxCell id="cykdBwdM0Bds0NIfHY12-61" style="shape=tableRow;horizontal=0;startSize=0;swimlaneHead=0;swimlaneBody=0;strokeColor=inherit;top=0;left=0;bottom=0;right=0;collapsible=0;dropTarget=0;fillColor=none;points=[[0,0.5],[1,0.5]];portConstraint=eastwest;fontColor=#FFFFFF;" parent="cykdBwdM0Bds0NIfHY12-13" vertex="1">
          <mxGeometry y="330" width="470" height="30" as="geometry" />
        </mxCell>
        <mxCell id="cykdBwdM0Bds0NIfHY12-62" value="24" style="shape=partialRectangle;html=1;whiteSpace=wrap;connectable=0;strokeColor=inherit;overflow=hidden;fillColor=none;top=0;left=0;bottom=0;right=0;pointerEvents=1;align=right;spacingLeft=3;fontColor=#FFFFFF;" parent="cykdBwdM0Bds0NIfHY12-61" vertex="1">
          <mxGeometry width="20" height="30" as="geometry">
            <mxRectangle width="20" height="30" as="alternateBounds" />
          </mxGeometry>
        </mxCell>
        <mxCell id="cykdBwdM0Bds0NIfHY12-63" value="First Name" style="shape=partialRectangle;html=1;whiteSpace=wrap;connectable=0;strokeColor=inherit;overflow=hidden;fillColor=none;top=0;left=0;bottom=0;right=0;pointerEvents=1;align=left;spacingLeft=3;fontColor=#FFFFFF;" parent="cykdBwdM0Bds0NIfHY12-61" vertex="1">
          <mxGeometry x="20" width="160" height="30" as="geometry">
            <mxRectangle width="160" height="30" as="alternateBounds" />
          </mxGeometry>
        </mxCell>
        <mxCell id="cykdBwdM0Bds0NIfHY12-64" value="UD_BDP_USR_GIVEN_NAME" style="shape=partialRectangle;html=1;whiteSpace=wrap;connectable=0;strokeColor=inherit;overflow=hidden;fillColor=none;top=0;left=0;bottom=0;right=0;pointerEvents=1;align=left;spacingLeft=3;fontColor=#FFFFFF;" parent="cykdBwdM0Bds0NIfHY12-61" vertex="1">
          <mxGeometry x="180" width="190" height="30" as="geometry">
            <mxRectangle width="190" height="30" as="alternateBounds" />
          </mxGeometry>
        </mxCell>
        <mxCell id="cykdBwdM0Bds0NIfHY12-65" value="String" style="shape=partialRectangle;html=1;whiteSpace=wrap;connectable=0;strokeColor=inherit;overflow=hidden;fillColor=none;top=0;left=0;bottom=0;right=0;pointerEvents=1;align=left;spacingLeft=3;fontColor=#FFFFFF;" parent="cykdBwdM0Bds0NIfHY12-61" vertex="1">
          <mxGeometry x="370" width="45" height="30" as="geometry">
            <mxRectangle width="45" height="30" as="alternateBounds" />
          </mxGeometry>
        </mxCell>
        <mxCell id="cykdBwdM0Bds0NIfHY12-66" value="256" style="shape=partialRectangle;html=1;whiteSpace=wrap;connectable=0;strokeColor=inherit;overflow=hidden;fillColor=none;top=0;left=0;bottom=0;right=0;pointerEvents=1;align=right;spacingLeft=3;fontColor=#FFFFFF;spacingRight=3;" parent="cykdBwdM0Bds0NIfHY12-61" vertex="1">
          <mxGeometry x="415" width="55" height="30" as="geometry">
            <mxRectangle width="55" height="30" as="alternateBounds" />
          </mxGeometry>
        </mxCell>
        <mxCell id="cykdBwdM0Bds0NIfHY12-67" style="shape=tableRow;horizontal=0;startSize=0;swimlaneHead=0;swimlaneBody=0;strokeColor=inherit;top=0;left=0;bottom=0;right=0;collapsible=0;dropTarget=0;fillColor=none;points=[[0,0.5],[1,0.5]];portConstraint=eastwest;fontColor=#FFFFFF;" parent="cykdBwdM0Bds0NIfHY12-13" vertex="1">
          <mxGeometry y="360" width="470" height="30" as="geometry" />
        </mxCell>
        <mxCell id="cykdBwdM0Bds0NIfHY12-68" value="26" style="shape=partialRectangle;html=1;whiteSpace=wrap;connectable=0;strokeColor=inherit;overflow=hidden;fillColor=none;top=0;left=0;bottom=0;right=0;pointerEvents=1;align=right;spacingLeft=3;fontColor=#FFFFFF;" parent="cykdBwdM0Bds0NIfHY12-67" vertex="1">
          <mxGeometry width="20" height="30" as="geometry">
            <mxRectangle width="20" height="30" as="alternateBounds" />
          </mxGeometry>
        </mxCell>
        <mxCell id="cykdBwdM0Bds0NIfHY12-69" value="Initials" style="shape=partialRectangle;html=1;whiteSpace=wrap;connectable=0;strokeColor=inherit;overflow=hidden;fillColor=none;top=0;left=0;bottom=0;right=0;pointerEvents=1;align=left;spacingLeft=3;fontColor=#FFFFFF;" parent="cykdBwdM0Bds0NIfHY12-67" vertex="1">
          <mxGeometry x="20" width="160" height="30" as="geometry">
            <mxRectangle width="160" height="30" as="alternateBounds" />
          </mxGeometry>
        </mxCell>
        <mxCell id="cykdBwdM0Bds0NIfHY12-70" value="UD_BDP_USR_INTIALS" style="shape=partialRectangle;html=1;whiteSpace=wrap;connectable=0;strokeColor=inherit;overflow=hidden;fillColor=none;top=0;left=0;bottom=0;right=0;pointerEvents=1;align=left;spacingLeft=3;fontColor=#FFFFFF;" parent="cykdBwdM0Bds0NIfHY12-67" vertex="1">
          <mxGeometry x="180" width="190" height="30" as="geometry">
            <mxRectangle width="190" height="30" as="alternateBounds" />
          </mxGeometry>
        </mxCell>
        <mxCell id="cykdBwdM0Bds0NIfHY12-71" value="String" style="shape=partialRectangle;html=1;whiteSpace=wrap;connectable=0;strokeColor=inherit;overflow=hidden;fillColor=none;top=0;left=0;bottom=0;right=0;pointerEvents=1;align=left;spacingLeft=3;fontColor=#FFFFFF;" parent="cykdBwdM0Bds0NIfHY12-67" vertex="1">
          <mxGeometry x="370" width="45" height="30" as="geometry">
            <mxRectangle width="45" height="30" as="alternateBounds" />
          </mxGeometry>
        </mxCell>
        <mxCell id="cykdBwdM0Bds0NIfHY12-72" value="16" style="shape=partialRectangle;html=1;whiteSpace=wrap;connectable=0;strokeColor=inherit;overflow=hidden;fillColor=none;top=0;left=0;bottom=0;right=0;pointerEvents=1;align=right;spacingLeft=3;fontColor=#FFFFFF;spacingRight=3;" parent="cykdBwdM0Bds0NIfHY12-67" vertex="1">
          <mxGeometry x="415" width="55" height="30" as="geometry">
            <mxRectangle width="55" height="30" as="alternateBounds" />
          </mxGeometry>
        </mxCell>
        <mxCell id="Jod2S5wvBKbCrdjLZ-1n-45" style="shape=tableRow;horizontal=0;startSize=0;swimlaneHead=0;swimlaneBody=0;strokeColor=inherit;top=0;left=0;bottom=0;right=0;collapsible=0;dropTarget=0;fillColor=none;points=[[0,0.5],[1,0.5]];portConstraint=eastwest;fontColor=#FFFFFF;" parent="cykdBwdM0Bds0NIfHY12-13" vertex="1">
          <mxGeometry y="390" width="470" height="30" as="geometry" />
        </mxCell>
        <mxCell id="Jod2S5wvBKbCrdjLZ-1n-46" value="28" style="shape=partialRectangle;html=1;whiteSpace=wrap;connectable=0;strokeColor=inherit;overflow=hidden;fillColor=none;top=0;left=0;bottom=0;right=0;pointerEvents=1;align=right;spacingLeft=3;fontColor=#FFFFFF;" parent="Jod2S5wvBKbCrdjLZ-1n-45" vertex="1">
          <mxGeometry width="20" height="30" as="geometry">
            <mxRectangle width="20" height="30" as="alternateBounds" />
          </mxGeometry>
        </mxCell>
        <mxCell id="Jod2S5wvBKbCrdjLZ-1n-47" value="Preferred Language" style="shape=partialRectangle;html=1;whiteSpace=wrap;connectable=0;strokeColor=inherit;overflow=hidden;fillColor=none;top=0;left=0;bottom=0;right=0;pointerEvents=1;align=left;spacingLeft=3;fontColor=#FFFFFF;" parent="Jod2S5wvBKbCrdjLZ-1n-45" vertex="1">
          <mxGeometry x="20" width="160" height="30" as="geometry">
            <mxRectangle width="160" height="30" as="alternateBounds" />
          </mxGeometry>
        </mxCell>
        <mxCell id="Jod2S5wvBKbCrdjLZ-1n-48" value="UD_BDP_USR_LANGUAGE" style="shape=partialRectangle;html=1;whiteSpace=wrap;connectable=0;strokeColor=inherit;overflow=hidden;fillColor=none;top=0;left=0;bottom=0;right=0;pointerEvents=1;align=left;spacingLeft=3;fontColor=#FFFFFF;" parent="Jod2S5wvBKbCrdjLZ-1n-45" vertex="1">
          <mxGeometry x="180" width="190" height="30" as="geometry">
            <mxRectangle width="190" height="30" as="alternateBounds" />
          </mxGeometry>
        </mxCell>
        <mxCell id="Jod2S5wvBKbCrdjLZ-1n-49" value="String" style="shape=partialRectangle;html=1;whiteSpace=wrap;connectable=0;strokeColor=inherit;overflow=hidden;fillColor=none;top=0;left=0;bottom=0;right=0;pointerEvents=1;align=left;spacingLeft=3;fontColor=#FFFFFF;" parent="Jod2S5wvBKbCrdjLZ-1n-45" vertex="1">
          <mxGeometry x="370" width="45" height="30" as="geometry">
            <mxRectangle width="45" height="30" as="alternateBounds" />
          </mxGeometry>
        </mxCell>
        <mxCell id="Jod2S5wvBKbCrdjLZ-1n-50" value="16" style="shape=partialRectangle;html=1;whiteSpace=wrap;connectable=0;strokeColor=inherit;overflow=hidden;fillColor=none;top=0;left=0;bottom=0;right=0;pointerEvents=1;align=right;spacingLeft=3;fontColor=#FFFFFF;spacingRight=3;" parent="Jod2S5wvBKbCrdjLZ-1n-45" vertex="1">
          <mxGeometry x="415" width="55" height="30" as="geometry">
            <mxRectangle width="55" height="30" as="alternateBounds" />
          </mxGeometry>
        </mxCell>
        <mxCell id="cykdBwdM0Bds0NIfHY12-73" style="shape=tableRow;horizontal=0;startSize=0;swimlaneHead=0;swimlaneBody=0;strokeColor=inherit;top=0;left=0;bottom=0;right=0;collapsible=0;dropTarget=0;fillColor=none;points=[[0,0.5],[1,0.5]];portConstraint=eastwest;fontColor=#FFFFFF;" parent="cykdBwdM0Bds0NIfHY12-13" vertex="1">
          <mxGeometry y="420" width="470" height="30" as="geometry" />
        </mxCell>
        <mxCell id="cykdBwdM0Bds0NIfHY12-74" value="30" style="shape=partialRectangle;html=1;whiteSpace=wrap;connectable=0;strokeColor=inherit;overflow=hidden;fillColor=none;top=0;left=0;bottom=0;right=0;pointerEvents=1;align=right;spacingLeft=3;fontColor=#FFFFFF;" parent="cykdBwdM0Bds0NIfHY12-73" vertex="1">
          <mxGeometry width="20" height="30" as="geometry">
            <mxRectangle width="20" height="30" as="alternateBounds" />
          </mxGeometry>
        </mxCell>
        <mxCell id="cykdBwdM0Bds0NIfHY12-75" value="Email" style="shape=partialRectangle;html=1;whiteSpace=wrap;connectable=0;strokeColor=inherit;overflow=hidden;fillColor=none;top=0;left=0;bottom=0;right=0;pointerEvents=1;align=left;spacingLeft=3;fontColor=#FFFFFF;" parent="cykdBwdM0Bds0NIfHY12-73" vertex="1">
          <mxGeometry x="20" width="160" height="30" as="geometry">
            <mxRectangle width="160" height="30" as="alternateBounds" />
          </mxGeometry>
        </mxCell>
        <mxCell id="cykdBwdM0Bds0NIfHY12-76" value="UD_BDP_USR_EMAIL" style="shape=partialRectangle;html=1;whiteSpace=wrap;connectable=0;strokeColor=inherit;overflow=hidden;fillColor=none;top=0;left=0;bottom=0;right=0;pointerEvents=1;align=left;spacingLeft=3;fontColor=#FFFFFF;" parent="cykdBwdM0Bds0NIfHY12-73" vertex="1">
          <mxGeometry x="180" width="190" height="30" as="geometry">
            <mxRectangle width="190" height="30" as="alternateBounds" />
          </mxGeometry>
        </mxCell>
        <mxCell id="cykdBwdM0Bds0NIfHY12-77" value="String" style="shape=partialRectangle;html=1;whiteSpace=wrap;connectable=0;strokeColor=inherit;overflow=hidden;fillColor=none;top=0;left=0;bottom=0;right=0;pointerEvents=1;align=left;spacingLeft=3;fontColor=#FFFFFF;" parent="cykdBwdM0Bds0NIfHY12-73" vertex="1">
          <mxGeometry x="370" width="45" height="30" as="geometry">
            <mxRectangle width="45" height="30" as="alternateBounds" />
          </mxGeometry>
        </mxCell>
        <mxCell id="cykdBwdM0Bds0NIfHY12-78" value="256" style="shape=partialRectangle;html=1;whiteSpace=wrap;connectable=0;strokeColor=inherit;overflow=hidden;fillColor=none;top=0;left=0;bottom=0;right=0;pointerEvents=1;align=right;spacingLeft=3;fontColor=#FFFFFF;spacingRight=3;" parent="cykdBwdM0Bds0NIfHY12-73" vertex="1">
          <mxGeometry x="415" width="55" height="30" as="geometry">
            <mxRectangle width="55" height="30" as="alternateBounds" />
          </mxGeometry>
        </mxCell>
        <mxCell id="cykdBwdM0Bds0NIfHY12-79" style="shape=tableRow;horizontal=0;startSize=0;swimlaneHead=0;swimlaneBody=0;strokeColor=inherit;top=0;left=0;bottom=0;right=0;collapsible=0;dropTarget=0;fillColor=none;points=[[0,0.5],[1,0.5]];portConstraint=eastwest;fontColor=#FFFFFF;" parent="cykdBwdM0Bds0NIfHY12-13" vertex="1">
          <mxGeometry y="450" width="470" height="30" as="geometry" />
        </mxCell>
        <mxCell id="cykdBwdM0Bds0NIfHY12-80" value="32" style="shape=partialRectangle;html=1;whiteSpace=wrap;connectable=0;strokeColor=inherit;overflow=hidden;fillColor=none;top=0;left=0;bottom=0;right=0;pointerEvents=1;align=right;spacingLeft=3;fontColor=#FFFFFF;" parent="cykdBwdM0Bds0NIfHY12-79" vertex="1">
          <mxGeometry width="20" height="30" as="geometry">
            <mxRectangle width="20" height="30" as="alternateBounds" />
          </mxGeometry>
        </mxCell>
        <mxCell id="cykdBwdM0Bds0NIfHY12-81" value="Telephone" style="shape=partialRectangle;html=1;whiteSpace=wrap;connectable=0;strokeColor=inherit;overflow=hidden;fillColor=none;top=0;left=0;bottom=0;right=0;pointerEvents=1;align=left;spacingLeft=3;fontColor=#FFFFFF;" parent="cykdBwdM0Bds0NIfHY12-79" vertex="1">
          <mxGeometry x="20" width="160" height="30" as="geometry">
            <mxRectangle width="160" height="30" as="alternateBounds" />
          </mxGeometry>
        </mxCell>
        <mxCell id="cykdBwdM0Bds0NIfHY12-82" value="UD_BDP_USR_TELEPHONE" style="shape=partialRectangle;html=1;whiteSpace=wrap;connectable=0;strokeColor=inherit;overflow=hidden;fillColor=none;top=0;left=0;bottom=0;right=0;pointerEvents=1;align=left;spacingLeft=3;fontColor=#FFFFFF;" parent="cykdBwdM0Bds0NIfHY12-79" vertex="1">
          <mxGeometry x="180" width="190" height="30" as="geometry">
            <mxRectangle width="190" height="30" as="alternateBounds" />
          </mxGeometry>
        </mxCell>
        <mxCell id="cykdBwdM0Bds0NIfHY12-83" value="String" style="shape=partialRectangle;html=1;whiteSpace=wrap;connectable=0;strokeColor=inherit;overflow=hidden;fillColor=none;top=0;left=0;bottom=0;right=0;pointerEvents=1;align=left;spacingLeft=3;fontColor=#FFFFFF;" parent="cykdBwdM0Bds0NIfHY12-79" vertex="1">
          <mxGeometry x="370" width="45" height="30" as="geometry">
            <mxRectangle width="45" height="30" as="alternateBounds" />
          </mxGeometry>
        </mxCell>
        <mxCell id="cykdBwdM0Bds0NIfHY12-84" value="64" style="shape=partialRectangle;html=1;whiteSpace=wrap;connectable=0;strokeColor=inherit;overflow=hidden;fillColor=none;top=0;left=0;bottom=0;right=0;pointerEvents=1;align=right;spacingLeft=3;fontColor=#FFFFFF;spacingRight=3;" parent="cykdBwdM0Bds0NIfHY12-79" vertex="1">
          <mxGeometry x="415" width="55" height="30" as="geometry">
            <mxRectangle width="55" height="30" as="alternateBounds" />
          </mxGeometry>
        </mxCell>
        <mxCell id="cykdBwdM0Bds0NIfHY12-85" style="shape=tableRow;horizontal=0;startSize=0;swimlaneHead=0;swimlaneBody=0;strokeColor=inherit;top=0;left=0;bottom=0;right=0;collapsible=0;dropTarget=0;fillColor=none;points=[[0,0.5],[1,0.5]];portConstraint=eastwest;fontColor=#FFFFFF;" parent="cykdBwdM0Bds0NIfHY12-13" vertex="1">
          <mxGeometry y="480" width="470" height="30" as="geometry" />
        </mxCell>
        <mxCell id="cykdBwdM0Bds0NIfHY12-86" value="34" style="shape=partialRectangle;html=1;whiteSpace=wrap;connectable=0;strokeColor=inherit;overflow=hidden;fillColor=none;top=0;left=0;bottom=0;right=0;pointerEvents=1;align=right;spacingLeft=3;fontColor=#FFFFFF;" parent="cykdBwdM0Bds0NIfHY12-85" vertex="1">
          <mxGeometry width="20" height="30" as="geometry">
            <mxRectangle width="20" height="30" as="alternateBounds" />
          </mxGeometry>
        </mxCell>
        <mxCell id="cykdBwdM0Bds0NIfHY12-87" value="Mobile" style="shape=partialRectangle;html=1;whiteSpace=wrap;connectable=0;strokeColor=inherit;overflow=hidden;fillColor=none;top=0;left=0;bottom=0;right=0;pointerEvents=1;align=left;spacingLeft=3;fontColor=#FFFFFF;" parent="cykdBwdM0Bds0NIfHY12-85" vertex="1">
          <mxGeometry x="20" width="160" height="30" as="geometry">
            <mxRectangle width="160" height="30" as="alternateBounds" />
          </mxGeometry>
        </mxCell>
        <mxCell id="cykdBwdM0Bds0NIfHY12-88" value="UD_BDP_USR_MOBIL" style="shape=partialRectangle;html=1;whiteSpace=wrap;connectable=0;strokeColor=inherit;overflow=hidden;fillColor=none;top=0;left=0;bottom=0;right=0;pointerEvents=1;align=left;spacingLeft=3;fontColor=#FFFFFF;" parent="cykdBwdM0Bds0NIfHY12-85" vertex="1">
          <mxGeometry x="180" width="190" height="30" as="geometry">
            <mxRectangle width="190" height="30" as="alternateBounds" />
          </mxGeometry>
        </mxCell>
        <mxCell id="cykdBwdM0Bds0NIfHY12-89" value="String" style="shape=partialRectangle;html=1;whiteSpace=wrap;connectable=0;strokeColor=inherit;overflow=hidden;fillColor=none;top=0;left=0;bottom=0;right=0;pointerEvents=1;align=left;spacingLeft=3;fontColor=#FFFFFF;" parent="cykdBwdM0Bds0NIfHY12-85" vertex="1">
          <mxGeometry x="370" width="45" height="30" as="geometry">
            <mxRectangle width="45" height="30" as="alternateBounds" />
          </mxGeometry>
        </mxCell>
        <mxCell id="cykdBwdM0Bds0NIfHY12-90" value="64" style="shape=partialRectangle;html=1;whiteSpace=wrap;connectable=0;strokeColor=inherit;overflow=hidden;fillColor=none;top=0;left=0;bottom=0;right=0;pointerEvents=1;align=right;spacingLeft=3;fontColor=#FFFFFF;spacingRight=3;" parent="cykdBwdM0Bds0NIfHY12-85" vertex="1">
          <mxGeometry x="415" width="55" height="30" as="geometry">
            <mxRectangle width="55" height="30" as="alternateBounds" />
          </mxGeometry>
        </mxCell>
        <mxCell id="cykdBwdM0Bds0NIfHY12-91" style="shape=tableRow;horizontal=0;startSize=0;swimlaneHead=0;swimlaneBody=0;strokeColor=inherit;top=0;left=0;bottom=0;right=0;collapsible=0;dropTarget=0;fillColor=none;points=[[0,0.5],[1,0.5]];portConstraint=eastwest;fontColor=#FFFFFF;" parent="cykdBwdM0Bds0NIfHY12-13" vertex="1">
          <mxGeometry y="510" width="470" height="34" as="geometry" />
        </mxCell>
        <mxCell id="cykdBwdM0Bds0NIfHY12-92" value="36" style="shape=partialRectangle;html=1;whiteSpace=wrap;connectable=0;strokeColor=inherit;overflow=hidden;fillColor=none;top=0;left=0;bottom=0;right=0;pointerEvents=1;align=right;spacingLeft=3;fontColor=#FFFFFF;" parent="cykdBwdM0Bds0NIfHY12-91" vertex="1">
          <mxGeometry width="20" height="34" as="geometry">
            <mxRectangle width="20" height="34" as="alternateBounds" />
          </mxGeometry>
        </mxCell>
        <mxCell id="cykdBwdM0Bds0NIfHY12-93" value="Facsimile" style="shape=partialRectangle;html=1;whiteSpace=wrap;connectable=0;strokeColor=inherit;overflow=hidden;fillColor=none;top=0;left=0;bottom=0;right=0;pointerEvents=1;align=left;spacingLeft=3;fontColor=#FFFFFF;" parent="cykdBwdM0Bds0NIfHY12-91" vertex="1">
          <mxGeometry x="20" width="160" height="34" as="geometry">
            <mxRectangle width="160" height="34" as="alternateBounds" />
          </mxGeometry>
        </mxCell>
        <mxCell id="cykdBwdM0Bds0NIfHY12-94" value="UD_BDP_USR_FAX" style="shape=partialRectangle;html=1;whiteSpace=wrap;connectable=0;strokeColor=inherit;overflow=hidden;fillColor=none;top=0;left=0;bottom=0;right=0;pointerEvents=1;align=left;spacingLeft=3;fontColor=#FFFFFF;" parent="cykdBwdM0Bds0NIfHY12-91" vertex="1">
          <mxGeometry x="180" width="190" height="34" as="geometry">
            <mxRectangle width="190" height="34" as="alternateBounds" />
          </mxGeometry>
        </mxCell>
        <mxCell id="cykdBwdM0Bds0NIfHY12-95" value="String" style="shape=partialRectangle;html=1;whiteSpace=wrap;connectable=0;strokeColor=inherit;overflow=hidden;fillColor=none;top=0;left=0;bottom=0;right=0;pointerEvents=1;align=left;spacingLeft=3;fontColor=#FFFFFF;" parent="cykdBwdM0Bds0NIfHY12-91" vertex="1">
          <mxGeometry x="370" width="45" height="34" as="geometry">
            <mxRectangle width="45" height="34" as="alternateBounds" />
          </mxGeometry>
        </mxCell>
        <mxCell id="cykdBwdM0Bds0NIfHY12-96" value="64" style="shape=partialRectangle;html=1;whiteSpace=wrap;connectable=0;strokeColor=inherit;overflow=hidden;fillColor=none;top=0;left=0;bottom=0;right=0;pointerEvents=1;align=right;spacingLeft=3;fontColor=#FFFFFF;spacingRight=3;" parent="cykdBwdM0Bds0NIfHY12-91" vertex="1">
          <mxGeometry x="415" width="55" height="34" as="geometry">
            <mxRectangle width="55" height="34" as="alternateBounds" />
          </mxGeometry>
        </mxCell>
        <mxCell id="Jod2S5wvBKbCrdjLZ-1n-28" style="shape=tableRow;horizontal=0;startSize=0;swimlaneHead=0;swimlaneBody=0;strokeColor=inherit;top=0;left=0;bottom=0;right=0;collapsible=0;dropTarget=0;fillColor=none;points=[[0,0.5],[1,0.5]];portConstraint=eastwest;fontColor=#FFFFFF;" parent="cykdBwdM0Bds0NIfHY12-13" vertex="1">
          <mxGeometry y="544" width="470" height="30" as="geometry" />
        </mxCell>
        <mxCell id="Jod2S5wvBKbCrdjLZ-1n-29" value="38" style="shape=partialRectangle;html=1;whiteSpace=wrap;connectable=0;strokeColor=inherit;overflow=hidden;fillColor=none;top=0;left=0;bottom=0;right=0;pointerEvents=1;align=right;spacingLeft=3;fontColor=#FFFFFF;" parent="Jod2S5wvBKbCrdjLZ-1n-28" vertex="1">
          <mxGeometry width="20" height="30" as="geometry">
            <mxRectangle width="20" height="30" as="alternateBounds" />
          </mxGeometry>
        </mxCell>
        <mxCell id="Jod2S5wvBKbCrdjLZ-1n-30" value="Pager" style="shape=partialRectangle;html=1;whiteSpace=wrap;connectable=0;strokeColor=inherit;overflow=hidden;fillColor=none;top=0;left=0;bottom=0;right=0;pointerEvents=1;align=left;spacingLeft=3;fontColor=#FFFFFF;" parent="Jod2S5wvBKbCrdjLZ-1n-28" vertex="1">
          <mxGeometry x="20" width="160" height="30" as="geometry">
            <mxRectangle width="160" height="30" as="alternateBounds" />
          </mxGeometry>
        </mxCell>
        <mxCell id="Jod2S5wvBKbCrdjLZ-1n-31" value="UD_BDP_USR_PAGER" style="shape=partialRectangle;html=1;whiteSpace=wrap;connectable=0;strokeColor=inherit;overflow=hidden;fillColor=none;top=0;left=0;bottom=0;right=0;pointerEvents=1;align=left;spacingLeft=3;fontColor=#FFFFFF;" parent="Jod2S5wvBKbCrdjLZ-1n-28" vertex="1">
          <mxGeometry x="180" width="190" height="30" as="geometry">
            <mxRectangle width="190" height="30" as="alternateBounds" />
          </mxGeometry>
        </mxCell>
        <mxCell id="Jod2S5wvBKbCrdjLZ-1n-32" value="String" style="shape=partialRectangle;html=1;whiteSpace=wrap;connectable=0;strokeColor=inherit;overflow=hidden;fillColor=none;top=0;left=0;bottom=0;right=0;pointerEvents=1;align=left;spacingLeft=3;fontColor=#FFFFFF;" parent="Jod2S5wvBKbCrdjLZ-1n-28" vertex="1">
          <mxGeometry x="370" width="45" height="30" as="geometry">
            <mxRectangle width="45" height="30" as="alternateBounds" />
          </mxGeometry>
        </mxCell>
        <mxCell id="Jod2S5wvBKbCrdjLZ-1n-33" value="32" style="shape=partialRectangle;html=1;whiteSpace=wrap;connectable=0;strokeColor=inherit;overflow=hidden;fillColor=none;top=0;left=0;bottom=0;right=0;pointerEvents=1;align=right;spacingLeft=3;fontColor=#FFFFFF;spacingRight=3;" parent="Jod2S5wvBKbCrdjLZ-1n-28" vertex="1">
          <mxGeometry x="415" width="55" height="30" as="geometry">
            <mxRectangle width="55" height="30" as="alternateBounds" />
          </mxGeometry>
        </mxCell>
        <mxCell id="Jod2S5wvBKbCrdjLZ-1n-22" style="shape=tableRow;horizontal=0;startSize=0;swimlaneHead=0;swimlaneBody=0;strokeColor=inherit;top=0;left=0;bottom=0;right=0;collapsible=0;dropTarget=0;fillColor=none;points=[[0,0.5],[1,0.5]];portConstraint=eastwest;fontColor=#FFFFFF;" parent="cykdBwdM0Bds0NIfHY12-13" vertex="1">
          <mxGeometry y="574" width="470" height="30" as="geometry" />
        </mxCell>
        <mxCell id="Jod2S5wvBKbCrdjLZ-1n-23" value="40" style="shape=partialRectangle;html=1;whiteSpace=wrap;connectable=0;strokeColor=inherit;overflow=hidden;fillColor=none;top=0;left=0;bottom=0;right=0;pointerEvents=1;align=right;spacingLeft=3;fontColor=#FFFFFF;" parent="Jod2S5wvBKbCrdjLZ-1n-22" vertex="1">
          <mxGeometry width="20" height="30" as="geometry">
            <mxRectangle width="20" height="30" as="alternateBounds" />
          </mxGeometry>
        </mxCell>
        <mxCell id="Jod2S5wvBKbCrdjLZ-1n-24" value="State" style="shape=partialRectangle;html=1;whiteSpace=wrap;connectable=0;strokeColor=inherit;overflow=hidden;fillColor=none;top=0;left=0;bottom=0;right=0;pointerEvents=1;align=left;spacingLeft=3;fontColor=#FFFFFF;" parent="Jod2S5wvBKbCrdjLZ-1n-22" vertex="1">
          <mxGeometry x="20" width="160" height="30" as="geometry">
            <mxRectangle width="160" height="30" as="alternateBounds" />
          </mxGeometry>
        </mxCell>
        <mxCell id="Jod2S5wvBKbCrdjLZ-1n-25" value="UD_BDP_USR_STATE" style="shape=partialRectangle;html=1;whiteSpace=wrap;connectable=0;strokeColor=inherit;overflow=hidden;fillColor=none;top=0;left=0;bottom=0;right=0;pointerEvents=1;align=left;spacingLeft=3;fontColor=#FFFFFF;" parent="Jod2S5wvBKbCrdjLZ-1n-22" vertex="1">
          <mxGeometry x="180" width="190" height="30" as="geometry">
            <mxRectangle width="190" height="30" as="alternateBounds" />
          </mxGeometry>
        </mxCell>
        <mxCell id="Jod2S5wvBKbCrdjLZ-1n-26" value="String" style="shape=partialRectangle;html=1;whiteSpace=wrap;connectable=0;strokeColor=inherit;overflow=hidden;fillColor=none;top=0;left=0;bottom=0;right=0;pointerEvents=1;align=left;spacingLeft=3;fontColor=#FFFFFF;" parent="Jod2S5wvBKbCrdjLZ-1n-22" vertex="1">
          <mxGeometry x="370" width="45" height="30" as="geometry">
            <mxRectangle width="45" height="30" as="alternateBounds" />
          </mxGeometry>
        </mxCell>
        <mxCell id="Jod2S5wvBKbCrdjLZ-1n-27" value="128" style="shape=partialRectangle;html=1;whiteSpace=wrap;connectable=0;strokeColor=inherit;overflow=hidden;fillColor=none;top=0;left=0;bottom=0;right=0;pointerEvents=1;align=right;spacingLeft=3;fontColor=#FFFFFF;spacingRight=3;" parent="Jod2S5wvBKbCrdjLZ-1n-22" vertex="1">
          <mxGeometry x="415" width="55" height="30" as="geometry">
            <mxRectangle width="55" height="30" as="alternateBounds" />
          </mxGeometry>
        </mxCell>
        <mxCell id="Jod2S5wvBKbCrdjLZ-1n-86" style="shape=tableRow;horizontal=0;startSize=0;swimlaneHead=0;swimlaneBody=0;strokeColor=inherit;top=0;left=0;bottom=0;right=0;collapsible=0;dropTarget=0;fillColor=none;points=[[0,0.5],[1,0.5]];portConstraint=eastwest;fontColor=#FFFFFF;" parent="cykdBwdM0Bds0NIfHY12-13" vertex="1">
          <mxGeometry y="604" width="470" height="30" as="geometry" />
        </mxCell>
        <mxCell id="Jod2S5wvBKbCrdjLZ-1n-87" value="42" style="shape=partialRectangle;html=1;whiteSpace=wrap;connectable=0;strokeColor=inherit;overflow=hidden;fillColor=none;top=0;left=0;bottom=0;right=0;pointerEvents=1;align=right;spacingLeft=3;fontColor=#FFFFFF;" parent="Jod2S5wvBKbCrdjLZ-1n-86" vertex="1">
          <mxGeometry width="20" height="30" as="geometry">
            <mxRectangle width="20" height="30" as="alternateBounds" />
          </mxGeometry>
        </mxCell>
        <mxCell id="Jod2S5wvBKbCrdjLZ-1n-88" value="Street" style="shape=partialRectangle;html=1;whiteSpace=wrap;connectable=0;strokeColor=inherit;overflow=hidden;fillColor=none;top=0;left=0;bottom=0;right=0;pointerEvents=1;align=left;spacingLeft=3;fontColor=#FFFFFF;" parent="Jod2S5wvBKbCrdjLZ-1n-86" vertex="1">
          <mxGeometry x="20" width="160" height="30" as="geometry">
            <mxRectangle width="160" height="30" as="alternateBounds" />
          </mxGeometry>
        </mxCell>
        <mxCell id="Jod2S5wvBKbCrdjLZ-1n-89" value="UD_BDP_USR_STREET" style="shape=partialRectangle;html=1;whiteSpace=wrap;connectable=0;strokeColor=inherit;overflow=hidden;fillColor=none;top=0;left=0;bottom=0;right=0;pointerEvents=1;align=left;spacingLeft=3;fontColor=#FFFFFF;" parent="Jod2S5wvBKbCrdjLZ-1n-86" vertex="1">
          <mxGeometry x="180" width="190" height="30" as="geometry">
            <mxRectangle width="190" height="30" as="alternateBounds" />
          </mxGeometry>
        </mxCell>
        <mxCell id="Jod2S5wvBKbCrdjLZ-1n-90" value="String" style="shape=partialRectangle;html=1;whiteSpace=wrap;connectable=0;strokeColor=inherit;overflow=hidden;fillColor=none;top=0;left=0;bottom=0;right=0;pointerEvents=1;align=left;spacingLeft=3;fontColor=#FFFFFF;" parent="Jod2S5wvBKbCrdjLZ-1n-86" vertex="1">
          <mxGeometry x="370" width="45" height="30" as="geometry">
            <mxRectangle width="45" height="30" as="alternateBounds" />
          </mxGeometry>
        </mxCell>
        <mxCell id="Jod2S5wvBKbCrdjLZ-1n-91" value="128" style="shape=partialRectangle;html=1;whiteSpace=wrap;connectable=0;strokeColor=inherit;overflow=hidden;fillColor=none;top=0;left=0;bottom=0;right=0;pointerEvents=1;align=right;spacingLeft=3;fontColor=#FFFFFF;spacingRight=3;" parent="Jod2S5wvBKbCrdjLZ-1n-86" vertex="1">
          <mxGeometry x="415" width="55" height="30" as="geometry">
            <mxRectangle width="55" height="30" as="alternateBounds" />
          </mxGeometry>
        </mxCell>
        <mxCell id="Jod2S5wvBKbCrdjLZ-1n-80" style="shape=tableRow;horizontal=0;startSize=0;swimlaneHead=0;swimlaneBody=0;strokeColor=inherit;top=0;left=0;bottom=0;right=0;collapsible=0;dropTarget=0;fillColor=none;points=[[0,0.5],[1,0.5]];portConstraint=eastwest;fontColor=#FFFFFF;" parent="cykdBwdM0Bds0NIfHY12-13" vertex="1">
          <mxGeometry y="634" width="470" height="30" as="geometry" />
        </mxCell>
        <mxCell id="Jod2S5wvBKbCrdjLZ-1n-81" value="44" style="shape=partialRectangle;html=1;whiteSpace=wrap;connectable=0;strokeColor=inherit;overflow=hidden;fillColor=none;top=0;left=0;bottom=0;right=0;pointerEvents=1;align=right;spacingLeft=3;fontColor=#FFFFFF;" parent="Jod2S5wvBKbCrdjLZ-1n-80" vertex="1">
          <mxGeometry width="20" height="30" as="geometry">
            <mxRectangle width="20" height="30" as="alternateBounds" />
          </mxGeometry>
        </mxCell>
        <mxCell id="Jod2S5wvBKbCrdjLZ-1n-82" value="Postal Code" style="shape=partialRectangle;html=1;whiteSpace=wrap;connectable=0;strokeColor=inherit;overflow=hidden;fillColor=none;top=0;left=0;bottom=0;right=0;pointerEvents=1;align=left;spacingLeft=3;fontColor=#FFFFFF;" parent="Jod2S5wvBKbCrdjLZ-1n-80" vertex="1">
          <mxGeometry x="20" width="160" height="30" as="geometry">
            <mxRectangle width="160" height="30" as="alternateBounds" />
          </mxGeometry>
        </mxCell>
        <mxCell id="Jod2S5wvBKbCrdjLZ-1n-83" value="UD_BDP_USR_POSTALCODE" style="shape=partialRectangle;html=1;whiteSpace=wrap;connectable=0;strokeColor=inherit;overflow=hidden;fillColor=none;top=0;left=0;bottom=0;right=0;pointerEvents=1;align=left;spacingLeft=3;fontColor=#FFFFFF;" parent="Jod2S5wvBKbCrdjLZ-1n-80" vertex="1">
          <mxGeometry x="180" width="190" height="30" as="geometry">
            <mxRectangle width="190" height="30" as="alternateBounds" />
          </mxGeometry>
        </mxCell>
        <mxCell id="Jod2S5wvBKbCrdjLZ-1n-84" value="String" style="shape=partialRectangle;html=1;whiteSpace=wrap;connectable=0;strokeColor=inherit;overflow=hidden;fillColor=none;top=0;left=0;bottom=0;right=0;pointerEvents=1;align=left;spacingLeft=3;fontColor=#FFFFFF;" parent="Jod2S5wvBKbCrdjLZ-1n-80" vertex="1">
          <mxGeometry x="370" width="45" height="30" as="geometry">
            <mxRectangle width="45" height="30" as="alternateBounds" />
          </mxGeometry>
        </mxCell>
        <mxCell id="Jod2S5wvBKbCrdjLZ-1n-85" value="64" style="shape=partialRectangle;html=1;whiteSpace=wrap;connectable=0;strokeColor=inherit;overflow=hidden;fillColor=none;top=0;left=0;bottom=0;right=0;pointerEvents=1;align=right;spacingLeft=3;fontColor=#FFFFFF;spacingRight=3;" parent="Jod2S5wvBKbCrdjLZ-1n-80" vertex="1">
          <mxGeometry x="415" width="55" height="30" as="geometry">
            <mxRectangle width="55" height="30" as="alternateBounds" />
          </mxGeometry>
        </mxCell>
        <mxCell id="Jod2S5wvBKbCrdjLZ-1n-74" style="shape=tableRow;horizontal=0;startSize=0;swimlaneHead=0;swimlaneBody=0;strokeColor=inherit;top=0;left=0;bottom=0;right=0;collapsible=0;dropTarget=0;fillColor=none;points=[[0,0.5],[1,0.5]];portConstraint=eastwest;fontColor=#FFFFFF;" parent="cykdBwdM0Bds0NIfHY12-13" vertex="1">
          <mxGeometry y="664" width="470" height="30" as="geometry" />
        </mxCell>
        <mxCell id="Jod2S5wvBKbCrdjLZ-1n-75" value="46" style="shape=partialRectangle;html=1;whiteSpace=wrap;connectable=0;strokeColor=inherit;overflow=hidden;fillColor=none;top=0;left=0;bottom=0;right=0;pointerEvents=1;align=right;spacingLeft=3;fontColor=#FFFFFF;" parent="Jod2S5wvBKbCrdjLZ-1n-74" vertex="1">
          <mxGeometry width="20" height="30" as="geometry">
            <mxRectangle width="20" height="30" as="alternateBounds" />
          </mxGeometry>
        </mxCell>
        <mxCell id="Jod2S5wvBKbCrdjLZ-1n-76" value="Locality Name" style="shape=partialRectangle;html=1;whiteSpace=wrap;connectable=0;strokeColor=inherit;overflow=hidden;fillColor=none;top=0;left=0;bottom=0;right=0;pointerEvents=1;align=left;spacingLeft=3;fontColor=#FFFFFF;" parent="Jod2S5wvBKbCrdjLZ-1n-74" vertex="1">
          <mxGeometry x="20" width="160" height="30" as="geometry">
            <mxRectangle width="160" height="30" as="alternateBounds" />
          </mxGeometry>
        </mxCell>
        <mxCell id="Jod2S5wvBKbCrdjLZ-1n-77" value="UD_BDP_USR_LOCALITY" style="shape=partialRectangle;html=1;whiteSpace=wrap;connectable=0;strokeColor=inherit;overflow=hidden;fillColor=none;top=0;left=0;bottom=0;right=0;pointerEvents=1;align=left;spacingLeft=3;fontColor=#FFFFFF;" parent="Jod2S5wvBKbCrdjLZ-1n-74" vertex="1">
          <mxGeometry x="180" width="190" height="30" as="geometry">
            <mxRectangle width="190" height="30" as="alternateBounds" />
          </mxGeometry>
        </mxCell>
        <mxCell id="Jod2S5wvBKbCrdjLZ-1n-78" value="String" style="shape=partialRectangle;html=1;whiteSpace=wrap;connectable=0;strokeColor=inherit;overflow=hidden;fillColor=none;top=0;left=0;bottom=0;right=0;pointerEvents=1;align=left;spacingLeft=3;fontColor=#FFFFFF;" parent="Jod2S5wvBKbCrdjLZ-1n-74" vertex="1">
          <mxGeometry x="370" width="45" height="30" as="geometry">
            <mxRectangle width="45" height="30" as="alternateBounds" />
          </mxGeometry>
        </mxCell>
        <mxCell id="Jod2S5wvBKbCrdjLZ-1n-79" value="128" style="shape=partialRectangle;html=1;whiteSpace=wrap;connectable=0;strokeColor=inherit;overflow=hidden;fillColor=none;top=0;left=0;bottom=0;right=0;pointerEvents=1;align=right;spacingLeft=3;fontColor=#FFFFFF;spacingRight=3;" parent="Jod2S5wvBKbCrdjLZ-1n-74" vertex="1">
          <mxGeometry x="415" width="55" height="30" as="geometry">
            <mxRectangle width="55" height="30" as="alternateBounds" />
          </mxGeometry>
        </mxCell>
        <mxCell id="Jod2S5wvBKbCrdjLZ-1n-68" style="shape=tableRow;horizontal=0;startSize=0;swimlaneHead=0;swimlaneBody=0;strokeColor=inherit;top=0;left=0;bottom=0;right=0;collapsible=0;dropTarget=0;fillColor=none;points=[[0,0.5],[1,0.5]];portConstraint=eastwest;fontColor=#FFFFFF;" parent="cykdBwdM0Bds0NIfHY12-13" vertex="1">
          <mxGeometry y="694" width="470" height="30" as="geometry" />
        </mxCell>
        <mxCell id="Jod2S5wvBKbCrdjLZ-1n-69" value="48" style="shape=partialRectangle;html=1;whiteSpace=wrap;connectable=0;strokeColor=inherit;overflow=hidden;fillColor=none;top=0;left=0;bottom=0;right=0;pointerEvents=1;align=right;spacingLeft=3;fontColor=#FFFFFF;" parent="Jod2S5wvBKbCrdjLZ-1n-68" vertex="1">
          <mxGeometry width="20" height="30" as="geometry">
            <mxRectangle width="20" height="30" as="alternateBounds" />
          </mxGeometry>
        </mxCell>
        <mxCell id="Jod2S5wvBKbCrdjLZ-1n-70" value="Postal Address" style="shape=partialRectangle;html=1;whiteSpace=wrap;connectable=0;strokeColor=inherit;overflow=hidden;fillColor=none;top=0;left=0;bottom=0;right=0;pointerEvents=1;align=left;spacingLeft=3;fontColor=#FFFFFF;" parent="Jod2S5wvBKbCrdjLZ-1n-68" vertex="1">
          <mxGeometry x="20" width="160" height="30" as="geometry">
            <mxRectangle width="160" height="30" as="alternateBounds" />
          </mxGeometry>
        </mxCell>
        <mxCell id="Jod2S5wvBKbCrdjLZ-1n-71" value="UD_BDP_USR_POSTALADR" style="shape=partialRectangle;html=1;whiteSpace=wrap;connectable=0;strokeColor=inherit;overflow=hidden;fillColor=none;top=0;left=0;bottom=0;right=0;pointerEvents=1;align=left;spacingLeft=3;fontColor=#FFFFFF;" parent="Jod2S5wvBKbCrdjLZ-1n-68" vertex="1">
          <mxGeometry x="180" width="190" height="30" as="geometry">
            <mxRectangle width="190" height="30" as="alternateBounds" />
          </mxGeometry>
        </mxCell>
        <mxCell id="Jod2S5wvBKbCrdjLZ-1n-72" value="String" style="shape=partialRectangle;html=1;whiteSpace=wrap;connectable=0;strokeColor=inherit;overflow=hidden;fillColor=none;top=0;left=0;bottom=0;right=0;pointerEvents=1;align=left;spacingLeft=3;fontColor=#FFFFFF;" parent="Jod2S5wvBKbCrdjLZ-1n-68" vertex="1">
          <mxGeometry x="370" width="45" height="30" as="geometry">
            <mxRectangle width="45" height="30" as="alternateBounds" />
          </mxGeometry>
        </mxCell>
        <mxCell id="Jod2S5wvBKbCrdjLZ-1n-73" value="2048" style="shape=partialRectangle;html=1;whiteSpace=wrap;connectable=0;strokeColor=inherit;overflow=hidden;fillColor=none;top=0;left=0;bottom=0;right=0;pointerEvents=1;align=right;spacingLeft=3;fontColor=#FFFFFF;spacingRight=3;" parent="Jod2S5wvBKbCrdjLZ-1n-68" vertex="1">
          <mxGeometry x="415" width="55" height="30" as="geometry">
            <mxRectangle width="55" height="30" as="alternateBounds" />
          </mxGeometry>
        </mxCell>
        <mxCell id="Jod2S5wvBKbCrdjLZ-1n-92" style="shape=tableRow;horizontal=0;startSize=0;swimlaneHead=0;swimlaneBody=0;strokeColor=inherit;top=0;left=0;bottom=0;right=0;collapsible=0;dropTarget=0;fillColor=none;points=[[0,0.5],[1,0.5]];portConstraint=eastwest;fontColor=#FFFFFF;" parent="cykdBwdM0Bds0NIfHY12-13" vertex="1">
          <mxGeometry y="724" width="470" height="30" as="geometry" />
        </mxCell>
        <mxCell id="Jod2S5wvBKbCrdjLZ-1n-93" value="50" style="shape=partialRectangle;html=1;whiteSpace=wrap;connectable=0;strokeColor=inherit;overflow=hidden;fillColor=none;top=0;left=0;bottom=0;right=0;pointerEvents=1;align=right;spacingLeft=3;fontColor=#FFFFFF;" parent="Jod2S5wvBKbCrdjLZ-1n-92" vertex="1">
          <mxGeometry width="20" height="30" as="geometry">
            <mxRectangle width="20" height="30" as="alternateBounds" />
          </mxGeometry>
        </mxCell>
        <mxCell id="Jod2S5wvBKbCrdjLZ-1n-94" value="Post Box" style="shape=partialRectangle;html=1;whiteSpace=wrap;connectable=0;strokeColor=inherit;overflow=hidden;fillColor=none;top=0;left=0;bottom=0;right=0;pointerEvents=1;align=left;spacingLeft=3;fontColor=#FFFFFF;" parent="Jod2S5wvBKbCrdjLZ-1n-92" vertex="1">
          <mxGeometry x="20" width="160" height="30" as="geometry">
            <mxRectangle width="160" height="30" as="alternateBounds" />
          </mxGeometry>
        </mxCell>
        <mxCell id="Jod2S5wvBKbCrdjLZ-1n-95" value="UD_BDP_USR_POBOX" style="shape=partialRectangle;html=1;whiteSpace=wrap;connectable=0;strokeColor=inherit;overflow=hidden;fillColor=none;top=0;left=0;bottom=0;right=0;pointerEvents=1;align=left;spacingLeft=3;fontColor=#FFFFFF;" parent="Jod2S5wvBKbCrdjLZ-1n-92" vertex="1">
          <mxGeometry x="180" width="190" height="30" as="geometry">
            <mxRectangle width="190" height="30" as="alternateBounds" />
          </mxGeometry>
        </mxCell>
        <mxCell id="Jod2S5wvBKbCrdjLZ-1n-96" value="String" style="shape=partialRectangle;html=1;whiteSpace=wrap;connectable=0;strokeColor=inherit;overflow=hidden;fillColor=none;top=0;left=0;bottom=0;right=0;pointerEvents=1;align=left;spacingLeft=3;fontColor=#FFFFFF;" parent="Jod2S5wvBKbCrdjLZ-1n-92" vertex="1">
          <mxGeometry x="370" width="45" height="30" as="geometry">
            <mxRectangle width="45" height="30" as="alternateBounds" />
          </mxGeometry>
        </mxCell>
        <mxCell id="Jod2S5wvBKbCrdjLZ-1n-97" value="64" style="shape=partialRectangle;html=1;whiteSpace=wrap;connectable=0;strokeColor=inherit;overflow=hidden;fillColor=none;top=0;left=0;bottom=0;right=0;pointerEvents=1;align=right;spacingLeft=3;fontColor=#FFFFFF;spacingRight=3;" parent="Jod2S5wvBKbCrdjLZ-1n-92" vertex="1">
          <mxGeometry x="415" width="55" height="30" as="geometry">
            <mxRectangle width="55" height="30" as="alternateBounds" />
          </mxGeometry>
        </mxCell>
        <mxCell id="cykdBwdM0Bds0NIfHY12-97" style="shape=tableRow;horizontal=0;startSize=0;swimlaneHead=0;swimlaneBody=0;strokeColor=inherit;top=0;left=0;bottom=0;right=0;collapsible=0;dropTarget=0;fillColor=none;points=[[0,0.5],[1,0.5]];portConstraint=eastwest;fontColor=#FFFFFF;" parent="cykdBwdM0Bds0NIfHY12-13" vertex="1">
          <mxGeometry y="754" width="470" height="30" as="geometry" />
        </mxCell>
        <mxCell id="cykdBwdM0Bds0NIfHY12-98" value="52" style="shape=partialRectangle;html=1;whiteSpace=wrap;connectable=0;strokeColor=inherit;overflow=hidden;fillColor=none;top=0;left=0;bottom=0;right=0;pointerEvents=1;align=right;spacingLeft=3;fontColor=#FFFFFF;" parent="cykdBwdM0Bds0NIfHY12-97" vertex="1">
          <mxGeometry width="20" height="30" as="geometry">
            <mxRectangle width="20" height="30" as="alternateBounds" />
          </mxGeometry>
        </mxCell>
        <mxCell id="cykdBwdM0Bds0NIfHY12-99" value="Participant" style="shape=partialRectangle;html=1;whiteSpace=wrap;connectable=0;strokeColor=inherit;overflow=hidden;fillColor=none;top=0;left=0;bottom=0;right=0;pointerEvents=1;align=left;spacingLeft=3;fontColor=#FFFFFF;" parent="cykdBwdM0Bds0NIfHY12-97" vertex="1">
          <mxGeometry x="20" width="160" height="30" as="geometry">
            <mxRectangle width="160" height="30" as="alternateBounds" />
          </mxGeometry>
        </mxCell>
        <mxCell id="cykdBwdM0Bds0NIfHY12-100" value="UD_BDP_USR_PTS" style="shape=partialRectangle;html=1;whiteSpace=wrap;connectable=0;strokeColor=inherit;overflow=hidden;fillColor=none;top=0;left=0;bottom=0;right=0;pointerEvents=1;align=left;spacingLeft=3;fontColor=#FFFFFF;" parent="cykdBwdM0Bds0NIfHY12-97" vertex="1">
          <mxGeometry x="180" width="190" height="30" as="geometry">
            <mxRectangle width="190" height="30" as="alternateBounds" />
          </mxGeometry>
        </mxCell>
        <mxCell id="cykdBwdM0Bds0NIfHY12-101" value="String" style="shape=partialRectangle;html=1;whiteSpace=wrap;connectable=0;strokeColor=inherit;overflow=hidden;fillColor=none;top=0;left=0;bottom=0;right=0;pointerEvents=1;align=left;spacingLeft=3;fontColor=#FFFFFF;" parent="cykdBwdM0Bds0NIfHY12-97" vertex="1">
          <mxGeometry x="370" width="45" height="30" as="geometry">
            <mxRectangle width="45" height="30" as="alternateBounds" />
          </mxGeometry>
        </mxCell>
        <mxCell id="cykdBwdM0Bds0NIfHY12-102" value="256" style="shape=partialRectangle;html=1;whiteSpace=wrap;connectable=0;strokeColor=inherit;overflow=hidden;fillColor=none;top=0;left=0;bottom=0;right=0;pointerEvents=1;align=right;spacingLeft=3;fontColor=#FFFFFF;spacingRight=3;" parent="cykdBwdM0Bds0NIfHY12-97" vertex="1">
          <mxGeometry x="415" width="55" height="30" as="geometry">
            <mxRectangle width="55" height="30" as="alternateBounds" />
          </mxGeometry>
        </mxCell>
        <mxCell id="cykdBwdM0Bds0NIfHY12-103" style="shape=tableRow;horizontal=0;startSize=0;swimlaneHead=0;swimlaneBody=0;strokeColor=inherit;top=0;left=0;bottom=0;right=0;collapsible=0;dropTarget=0;fillColor=none;points=[[0,0.5],[1,0.5]];portConstraint=eastwest;fontColor=#FFFFFF;" parent="cykdBwdM0Bds0NIfHY12-13" vertex="1">
          <mxGeometry y="784" width="470" height="30" as="geometry" />
        </mxCell>
        <mxCell id="cykdBwdM0Bds0NIfHY12-104" value="54" style="shape=partialRectangle;html=1;whiteSpace=wrap;connectable=0;strokeColor=inherit;overflow=hidden;fillColor=none;top=0;left=0;bottom=0;right=0;pointerEvents=1;align=right;spacingLeft=3;fontColor=#FFFFFF;" parent="cykdBwdM0Bds0NIfHY12-103" vertex="1">
          <mxGeometry width="20" height="30" as="geometry">
            <mxRectangle width="20" height="30" as="alternateBounds" />
          </mxGeometry>
        </mxCell>
        <mxCell id="cykdBwdM0Bds0NIfHY12-105" value="Organization Name" style="shape=partialRectangle;html=1;whiteSpace=wrap;connectable=0;strokeColor=inherit;overflow=hidden;fillColor=none;top=0;left=0;bottom=0;right=0;pointerEvents=1;align=left;spacingLeft=3;fontColor=#FFFFFF;" parent="cykdBwdM0Bds0NIfHY12-103" vertex="1">
          <mxGeometry x="20" width="160" height="30" as="geometry">
            <mxRectangle width="160" height="30" as="alternateBounds" />
          </mxGeometry>
        </mxCell>
        <mxCell id="cykdBwdM0Bds0NIfHY12-106" value="UD_BDP_USR_O" style="shape=partialRectangle;html=1;whiteSpace=wrap;connectable=0;strokeColor=inherit;overflow=hidden;fillColor=none;top=0;left=0;bottom=0;right=0;pointerEvents=1;align=left;spacingLeft=3;fontColor=#FFFFFF;" parent="cykdBwdM0Bds0NIfHY12-103" vertex="1">
          <mxGeometry x="180" width="190" height="30" as="geometry">
            <mxRectangle width="190" height="30" as="alternateBounds" />
          </mxGeometry>
        </mxCell>
        <mxCell id="cykdBwdM0Bds0NIfHY12-107" value="String" style="shape=partialRectangle;html=1;whiteSpace=wrap;connectable=0;strokeColor=inherit;overflow=hidden;fillColor=none;top=0;left=0;bottom=0;right=0;pointerEvents=1;align=left;spacingLeft=3;fontColor=#FFFFFF;" parent="cykdBwdM0Bds0NIfHY12-103" vertex="1">
          <mxGeometry x="370" width="45" height="30" as="geometry">
            <mxRectangle width="45" height="30" as="alternateBounds" />
          </mxGeometry>
        </mxCell>
        <mxCell id="cykdBwdM0Bds0NIfHY12-108" value="64" style="shape=partialRectangle;html=1;whiteSpace=wrap;connectable=0;strokeColor=inherit;overflow=hidden;fillColor=none;top=0;left=0;bottom=0;right=0;pointerEvents=1;align=right;spacingLeft=3;fontColor=#FFFFFF;spacingRight=3;" parent="cykdBwdM0Bds0NIfHY12-103" vertex="1">
          <mxGeometry x="415" width="55" height="30" as="geometry">
            <mxRectangle width="55" height="30" as="alternateBounds" />
          </mxGeometry>
        </mxCell>
        <mxCell id="cykdBwdM0Bds0NIfHY12-109" style="shape=tableRow;horizontal=0;startSize=0;swimlaneHead=0;swimlaneBody=0;strokeColor=inherit;top=0;left=0;bottom=0;right=0;collapsible=0;dropTarget=0;fillColor=none;points=[[0,0.5],[1,0.5]];portConstraint=eastwest;fontColor=#FFFFFF;" parent="cykdBwdM0Bds0NIfHY12-13" vertex="1">
          <mxGeometry y="814" width="470" height="30" as="geometry" />
        </mxCell>
        <mxCell id="cykdBwdM0Bds0NIfHY12-110" value="56" style="shape=partialRectangle;html=1;whiteSpace=wrap;connectable=0;strokeColor=inherit;overflow=hidden;fillColor=none;top=0;left=0;bottom=0;right=0;pointerEvents=1;align=right;spacingLeft=3;fontColor=#FFFFFF;" parent="cykdBwdM0Bds0NIfHY12-109" vertex="1">
          <mxGeometry width="20" height="30" as="geometry">
            <mxRectangle width="20" height="30" as="alternateBounds" />
          </mxGeometry>
        </mxCell>
        <mxCell id="cykdBwdM0Bds0NIfHY12-111" value="Organizational Unit Name" style="shape=partialRectangle;html=1;whiteSpace=wrap;connectable=0;strokeColor=inherit;overflow=hidden;fillColor=none;top=0;left=0;bottom=0;right=0;pointerEvents=1;align=left;spacingLeft=3;fontColor=#FFFFFF;" parent="cykdBwdM0Bds0NIfHY12-109" vertex="1">
          <mxGeometry x="20" width="160" height="30" as="geometry">
            <mxRectangle width="160" height="30" as="alternateBounds" />
          </mxGeometry>
        </mxCell>
        <mxCell id="cykdBwdM0Bds0NIfHY12-112" value="UD_BDP_USR_OU" style="shape=partialRectangle;html=1;whiteSpace=wrap;connectable=0;strokeColor=inherit;overflow=hidden;fillColor=none;top=0;left=0;bottom=0;right=0;pointerEvents=1;align=left;spacingLeft=3;fontColor=#FFFFFF;" parent="cykdBwdM0Bds0NIfHY12-109" vertex="1">
          <mxGeometry x="180" width="190" height="30" as="geometry">
            <mxRectangle width="190" height="30" as="alternateBounds" />
          </mxGeometry>
        </mxCell>
        <mxCell id="cykdBwdM0Bds0NIfHY12-113" value="String" style="shape=partialRectangle;html=1;whiteSpace=wrap;connectable=0;strokeColor=inherit;overflow=hidden;fillColor=none;top=0;left=0;bottom=0;right=0;pointerEvents=1;align=left;spacingLeft=3;fontColor=#FFFFFF;" parent="cykdBwdM0Bds0NIfHY12-109" vertex="1">
          <mxGeometry x="370" width="45" height="30" as="geometry">
            <mxRectangle width="45" height="30" as="alternateBounds" />
          </mxGeometry>
        </mxCell>
        <mxCell id="cykdBwdM0Bds0NIfHY12-114" value="64" style="shape=partialRectangle;html=1;whiteSpace=wrap;connectable=0;strokeColor=inherit;overflow=hidden;fillColor=none;top=0;left=0;bottom=0;right=0;pointerEvents=1;align=right;spacingLeft=3;fontColor=#FFFFFF;spacingRight=3;" parent="cykdBwdM0Bds0NIfHY12-109" vertex="1">
          <mxGeometry x="415" width="55" height="30" as="geometry">
            <mxRectangle width="55" height="30" as="alternateBounds" />
          </mxGeometry>
        </mxCell>
        <mxCell id="cykdBwdM0Bds0NIfHY12-139" style="shape=tableRow;horizontal=0;startSize=0;swimlaneHead=0;swimlaneBody=0;strokeColor=inherit;top=0;left=0;bottom=0;right=0;collapsible=0;dropTarget=0;fillColor=none;points=[[0,0.5],[1,0.5]];portConstraint=eastwest;fontColor=#FFFFFF;" parent="cykdBwdM0Bds0NIfHY12-13" vertex="1">
          <mxGeometry y="844" width="470" height="30" as="geometry" />
        </mxCell>
        <mxCell id="cykdBwdM0Bds0NIfHY12-140" value="58" style="shape=partialRectangle;html=1;whiteSpace=wrap;connectable=0;strokeColor=inherit;overflow=hidden;fillColor=none;top=0;left=0;bottom=0;right=0;pointerEvents=1;align=right;spacingLeft=3;fontColor=#FFFFFF;" parent="cykdBwdM0Bds0NIfHY12-139" vertex="1">
          <mxGeometry width="20" height="30" as="geometry">
            <mxRectangle width="20" height="30" as="alternateBounds" />
          </mxGeometry>
        </mxCell>
        <mxCell id="cykdBwdM0Bds0NIfHY12-141" value="Departmant" style="shape=partialRectangle;html=1;whiteSpace=wrap;connectable=0;strokeColor=inherit;overflow=hidden;fillColor=none;top=0;left=0;bottom=0;right=0;pointerEvents=1;align=left;spacingLeft=3;fontColor=#FFFFFF;" parent="cykdBwdM0Bds0NIfHY12-139" vertex="1">
          <mxGeometry x="20" width="160" height="30" as="geometry">
            <mxRectangle width="160" height="30" as="alternateBounds" />
          </mxGeometry>
        </mxCell>
        <mxCell id="cykdBwdM0Bds0NIfHY12-142" value="UD_BDP_USR_DEPT" style="shape=partialRectangle;html=1;whiteSpace=wrap;connectable=0;strokeColor=inherit;overflow=hidden;fillColor=none;top=0;left=0;bottom=0;right=0;pointerEvents=1;align=left;spacingLeft=3;fontColor=#FFFFFF;" parent="cykdBwdM0Bds0NIfHY12-139" vertex="1">
          <mxGeometry x="180" width="190" height="30" as="geometry">
            <mxRectangle width="190" height="30" as="alternateBounds" />
          </mxGeometry>
        </mxCell>
        <mxCell id="cykdBwdM0Bds0NIfHY12-143" value="String" style="shape=partialRectangle;html=1;whiteSpace=wrap;connectable=0;strokeColor=inherit;overflow=hidden;fillColor=none;top=0;left=0;bottom=0;right=0;pointerEvents=1;align=left;spacingLeft=3;fontColor=#FFFFFF;" parent="cykdBwdM0Bds0NIfHY12-139" vertex="1">
          <mxGeometry x="370" width="45" height="30" as="geometry">
            <mxRectangle width="45" height="30" as="alternateBounds" />
          </mxGeometry>
        </mxCell>
        <mxCell id="cykdBwdM0Bds0NIfHY12-144" value="32" style="shape=partialRectangle;html=1;whiteSpace=wrap;connectable=0;strokeColor=inherit;overflow=hidden;fillColor=none;top=0;left=0;bottom=0;right=0;pointerEvents=1;align=right;spacingLeft=3;fontColor=#FFFFFF;spacingRight=3;" parent="cykdBwdM0Bds0NIfHY12-139" vertex="1">
          <mxGeometry x="415" width="55" height="30" as="geometry">
            <mxRectangle width="55" height="30" as="alternateBounds" />
          </mxGeometry>
        </mxCell>
        <mxCell id="cykdBwdM0Bds0NIfHY12-181" style="shape=tableRow;horizontal=0;startSize=0;swimlaneHead=0;swimlaneBody=0;strokeColor=inherit;top=0;left=0;bottom=0;right=0;collapsible=0;dropTarget=0;fillColor=none;points=[[0,0.5],[1,0.5]];portConstraint=eastwest;fontColor=#FFFFFF;" parent="cykdBwdM0Bds0NIfHY12-13" vertex="1">
          <mxGeometry y="874" width="470" height="30" as="geometry" />
        </mxCell>
        <mxCell id="cykdBwdM0Bds0NIfHY12-182" value="60" style="shape=partialRectangle;html=1;whiteSpace=wrap;connectable=0;strokeColor=inherit;overflow=hidden;fillColor=none;top=0;left=0;bottom=0;right=0;pointerEvents=1;align=right;spacingLeft=3;fontColor=#FFFFFF;" parent="cykdBwdM0Bds0NIfHY12-181" vertex="1">
          <mxGeometry width="20" height="30" as="geometry">
            <mxRectangle width="20" height="30" as="alternateBounds" />
          </mxGeometry>
        </mxCell>
        <mxCell id="cykdBwdM0Bds0NIfHY12-183" value="Unique Identifier" style="shape=partialRectangle;html=1;whiteSpace=wrap;connectable=0;strokeColor=inherit;overflow=hidden;fillColor=none;top=0;left=0;bottom=0;right=0;pointerEvents=1;align=left;spacingLeft=3;fontColor=#FFFFFF;" parent="cykdBwdM0Bds0NIfHY12-181" vertex="1">
          <mxGeometry x="20" width="160" height="30" as="geometry">
            <mxRectangle width="160" height="30" as="alternateBounds" />
          </mxGeometry>
        </mxCell>
        <mxCell id="cykdBwdM0Bds0NIfHY12-184" value="UD_BDP_USR_UID" style="shape=partialRectangle;html=1;whiteSpace=wrap;connectable=0;strokeColor=inherit;overflow=hidden;fillColor=none;top=0;left=0;bottom=0;right=0;pointerEvents=1;align=left;spacingLeft=3;fontColor=#FFFFFF;" parent="cykdBwdM0Bds0NIfHY12-181" vertex="1">
          <mxGeometry x="180" width="190" height="30" as="geometry">
            <mxRectangle width="190" height="30" as="alternateBounds" />
          </mxGeometry>
        </mxCell>
        <mxCell id="cykdBwdM0Bds0NIfHY12-185" value="String" style="shape=partialRectangle;html=1;whiteSpace=wrap;connectable=0;strokeColor=inherit;overflow=hidden;fillColor=none;top=0;left=0;bottom=0;right=0;pointerEvents=1;align=left;spacingLeft=3;fontColor=#FFFFFF;" parent="cykdBwdM0Bds0NIfHY12-181" vertex="1">
          <mxGeometry x="370" width="45" height="30" as="geometry">
            <mxRectangle width="45" height="30" as="alternateBounds" />
          </mxGeometry>
        </mxCell>
        <mxCell id="cykdBwdM0Bds0NIfHY12-186" value="256" style="shape=partialRectangle;html=1;whiteSpace=wrap;connectable=0;strokeColor=inherit;overflow=hidden;fillColor=none;top=0;left=0;bottom=0;right=0;pointerEvents=1;align=right;spacingLeft=3;fontColor=#FFFFFF;spacingRight=3;" parent="cykdBwdM0Bds0NIfHY12-181" vertex="1">
          <mxGeometry x="415" width="55" height="30" as="geometry">
            <mxRectangle width="55" height="30" as="alternateBounds" />
          </mxGeometry>
        </mxCell>
        <mxCell id="cykdBwdM0Bds0NIfHY12-187" style="shape=tableRow;horizontal=0;startSize=0;swimlaneHead=0;swimlaneBody=0;strokeColor=inherit;top=0;left=0;bottom=0;right=0;collapsible=0;dropTarget=0;fillColor=none;points=[[0,0.5],[1,0.5]];portConstraint=eastwest;fontColor=#FFFFFF;" parent="cykdBwdM0Bds0NIfHY12-13" vertex="1">
          <mxGeometry y="904" width="470" height="30" as="geometry" />
        </mxCell>
        <mxCell id="cykdBwdM0Bds0NIfHY12-188" value="62" style="shape=partialRectangle;html=1;whiteSpace=wrap;connectable=0;strokeColor=inherit;overflow=hidden;fillColor=none;top=0;left=0;bottom=0;right=0;pointerEvents=1;align=right;spacingLeft=3;fontColor=#FFFFFF;" parent="cykdBwdM0Bds0NIfHY12-187" vertex="1">
          <mxGeometry width="20" height="30" as="geometry">
            <mxRectangle width="20" height="30" as="alternateBounds" />
          </mxGeometry>
        </mxCell>
        <mxCell id="cykdBwdM0Bds0NIfHY12-189" value="Anonymous Identifier" style="shape=partialRectangle;html=1;whiteSpace=wrap;connectable=0;strokeColor=inherit;overflow=hidden;fillColor=none;top=0;left=0;bottom=0;right=0;pointerEvents=1;align=left;spacingLeft=3;fontColor=#FFFFFF;" parent="cykdBwdM0Bds0NIfHY12-187" vertex="1">
          <mxGeometry x="20" width="160" height="30" as="geometry">
            <mxRectangle width="160" height="30" as="alternateBounds" />
          </mxGeometry>
        </mxCell>
        <mxCell id="cykdBwdM0Bds0NIfHY12-190" value="UD_BDP_USR_PID" style="shape=partialRectangle;html=1;whiteSpace=wrap;connectable=0;strokeColor=inherit;overflow=hidden;fillColor=none;top=0;left=0;bottom=0;right=0;pointerEvents=1;align=left;spacingLeft=3;fontColor=#FFFFFF;" parent="cykdBwdM0Bds0NIfHY12-187" vertex="1">
          <mxGeometry x="180" width="190" height="30" as="geometry">
            <mxRectangle width="190" height="30" as="alternateBounds" />
          </mxGeometry>
        </mxCell>
        <mxCell id="cykdBwdM0Bds0NIfHY12-191" value="String" style="shape=partialRectangle;html=1;whiteSpace=wrap;connectable=0;strokeColor=inherit;overflow=hidden;fillColor=none;top=0;left=0;bottom=0;right=0;pointerEvents=1;align=left;spacingLeft=3;fontColor=#FFFFFF;" parent="cykdBwdM0Bds0NIfHY12-187" vertex="1">
          <mxGeometry x="370" width="45" height="30" as="geometry">
            <mxRectangle width="45" height="30" as="alternateBounds" />
          </mxGeometry>
        </mxCell>
        <mxCell id="cykdBwdM0Bds0NIfHY12-192" value="256" style="shape=partialRectangle;html=1;whiteSpace=wrap;connectable=0;strokeColor=inherit;overflow=hidden;fillColor=none;top=0;left=0;bottom=0;right=0;pointerEvents=1;align=right;spacingLeft=3;fontColor=#FFFFFF;spacingRight=3;" parent="cykdBwdM0Bds0NIfHY12-187" vertex="1">
          <mxGeometry x="415" width="55" height="30" as="geometry">
            <mxRectangle width="55" height="30" as="alternateBounds" />
          </mxGeometry>
        </mxCell>
        <mxCell id="cykdBwdM0Bds0NIfHY12-118" value="" style="endArrow=oval;html=1;rounded=0;exitX=1;exitY=0.5;exitDx=0;exitDy=0;entryX=0;entryY=0.5;entryDx=0;entryDy=0;startArrow=oval;startFill=1;endFill=1;strokeColor=#7030A0;" parent="1" source="cykdBwdM0Bds0NIfHY12-7" target="cykdBwdM0Bds0NIfHY12-37" edge="1">
          <mxGeometry width="50" height="50" relative="1" as="geometry">
            <mxPoint x="407" y="589" as="sourcePoint" />
            <mxPoint x="457" y="539" as="targetPoint" />
          </mxGeometry>
        </mxCell>
        <mxCell id="cykdBwdM0Bds0NIfHY12-120" value="" style="endArrow=oval;html=1;rounded=0;exitX=1;exitY=0.5;exitDx=0;exitDy=0;entryX=0;entryY=0.5;entryDx=0;entryDy=0;startArrow=oval;startFill=1;endFill=1;strokeColor=#7030A0;" parent="1" source="cykdBwdM0Bds0NIfHY12-8" target="cykdBwdM0Bds0NIfHY12-55" edge="1">
          <mxGeometry width="50" height="50" relative="1" as="geometry">
            <mxPoint x="205" y="161" as="sourcePoint" />
            <mxPoint x="307" y="161" as="targetPoint" />
          </mxGeometry>
        </mxCell>
        <mxCell id="cykdBwdM0Bds0NIfHY12-121" value="" style="endArrow=oval;html=1;rounded=0;exitX=1;exitY=0.5;exitDx=0;exitDy=0;startArrow=oval;startFill=1;endFill=1;strokeColor=#7030A0;" parent="1" source="cykdBwdM0Bds0NIfHY12-9" target="cykdBwdM0Bds0NIfHY12-61" edge="1">
          <mxGeometry width="50" height="50" relative="1" as="geometry">
            <mxPoint x="215" y="171" as="sourcePoint" />
            <mxPoint x="317" y="171" as="targetPoint" />
          </mxGeometry>
        </mxCell>
        <mxCell id="cykdBwdM0Bds0NIfHY12-127" value="Common Name" style="rounded=0;whiteSpace=wrap;html=1;strokeColor=#FFFFFF;fillColor=#7030A0;fontColor=#FFFFFF;align=left;spacingLeft=3;" parent="1" vertex="1">
          <mxGeometry x="14.873999999999999" y="226.09" width="180" height="30" as="geometry" />
        </mxCell>
        <mxCell id="cykdBwdM0Bds0NIfHY12-128" value="" style="endArrow=oval;html=1;rounded=0;exitX=1;exitY=0.5;exitDx=0;exitDy=0;entryX=0;entryY=0.5;entryDx=0;entryDy=0;startArrow=oval;startFill=1;endFill=1;strokeColor=#7030A0;" parent="1" source="cykdBwdM0Bds0NIfHY12-127" target="cykdBwdM0Bds0NIfHY12-43" edge="1">
          <mxGeometry width="50" height="50" relative="1" as="geometry">
            <mxPoint x="205" y="281" as="sourcePoint" />
            <mxPoint x="307" y="281" as="targetPoint" />
          </mxGeometry>
        </mxCell>
        <mxCell id="cykdBwdM0Bds0NIfHY12-129" value="Generation Qualifier" style="rounded=0;whiteSpace=wrap;html=1;strokeColor=#FFFFFF;fillColor=#7030A0;fontColor=#FFFFFF;align=left;spacingLeft=3;" parent="1" vertex="1">
          <mxGeometry x="14.873999999999999" y="256.09000000000003" width="180" height="30" as="geometry" />
        </mxCell>
        <mxCell id="cykdBwdM0Bds0NIfHY12-130" value="" style="endArrow=oval;html=1;rounded=0;exitX=1;exitY=0.5;exitDx=0;exitDy=0;entryX=0;entryY=0.5;entryDx=0;entryDy=0;startArrow=oval;startFill=1;endFill=1;strokeColor=#7030A0;" parent="1" source="cykdBwdM0Bds0NIfHY12-129" target="cykdBwdM0Bds0NIfHY12-49" edge="1">
          <mxGeometry width="50" height="50" relative="1" as="geometry">
            <mxPoint x="205" y="191" as="sourcePoint" />
            <mxPoint x="307" y="191" as="targetPoint" />
          </mxGeometry>
        </mxCell>
        <mxCell id="cykdBwdM0Bds0NIfHY12-131" value="Middle Initial" style="rounded=0;whiteSpace=wrap;html=1;strokeColor=#FFFFFF;fillColor=#7030A0;fontColor=#FFFFFF;align=left;spacingLeft=3;" parent="1" vertex="1">
          <mxGeometry x="14.873999999999999" y="406.09000000000003" width="180" height="30" as="geometry" />
        </mxCell>
        <mxCell id="cykdBwdM0Bds0NIfHY12-132" value="" style="endArrow=oval;html=1;rounded=0;exitX=1;exitY=0.5;exitDx=0;exitDy=0;entryX=0;entryY=0.5;entryDx=0;entryDy=0;startArrow=oval;startFill=1;endFill=1;strokeColor=#7030A0;" parent="1" source="cykdBwdM0Bds0NIfHY12-131" target="cykdBwdM0Bds0NIfHY12-67" edge="1">
          <mxGeometry width="50" height="50" relative="1" as="geometry">
            <mxPoint x="205" y="311" as="sourcePoint" />
            <mxPoint x="307" y="311" as="targetPoint" />
          </mxGeometry>
        </mxCell>
        <mxCell id="cykdBwdM0Bds0NIfHY12-133" value="Email Address" style="rounded=0;whiteSpace=wrap;html=1;strokeColor=#FFFFFF;fillColor=#7030A0;fontColor=#FFFFFF;align=left;spacingLeft=3;" parent="1" vertex="1">
          <mxGeometry x="14.873999999999995" y="466.09000000000003" width="180" height="30" as="geometry" />
        </mxCell>
        <mxCell id="cykdBwdM0Bds0NIfHY12-136" value="participant" style="rounded=0;whiteSpace=wrap;html=1;strokeColor=#FFFFFF;fillColor=#7030A0;fontColor=#FFFFFF;align=left;spacingLeft=3;" parent="1" vertex="1">
          <mxGeometry x="14.873999999999999" y="801.09" width="180" height="30" as="geometry" />
        </mxCell>
        <mxCell id="cykdBwdM0Bds0NIfHY12-137" value="" style="endArrow=oval;html=1;rounded=0;exitX=1;exitY=0.5;exitDx=0;exitDy=0;entryX=0;entryY=0.5;entryDx=0;entryDy=0;startArrow=oval;startFill=1;endFill=1;strokeColor=#7030A0;" parent="1" source="cykdBwdM0Bds0NIfHY12-133" target="cykdBwdM0Bds0NIfHY12-73" edge="1">
          <mxGeometry width="50" height="50" relative="1" as="geometry">
            <mxPoint x="205" y="341" as="sourcePoint" />
            <mxPoint x="307" y="341" as="targetPoint" />
          </mxGeometry>
        </mxCell>
        <mxCell id="cykdBwdM0Bds0NIfHY12-138" value="" style="endArrow=oval;html=1;rounded=0;exitX=1;exitY=0.5;exitDx=0;exitDy=0;entryX=0;entryY=0.5;entryDx=0;entryDy=0;startArrow=oval;startFill=1;endFill=1;strokeColor=#7030A0;" parent="1" source="cykdBwdM0Bds0NIfHY12-136" target="cykdBwdM0Bds0NIfHY12-97" edge="1">
          <mxGeometry width="50" height="50" relative="1" as="geometry">
            <mxPoint x="215" y="351" as="sourcePoint" />
            <mxPoint x="317" y="351" as="targetPoint" />
          </mxGeometry>
        </mxCell>
        <mxCell id="cykdBwdM0Bds0NIfHY12-157" value="department" style="rounded=0;whiteSpace=wrap;html=1;strokeColor=#FFFFFF;fillColor=#7030A0;fontColor=#FFFFFF;align=left;spacingLeft=3;" parent="1" vertex="1">
          <mxGeometry x="14.873999999999999" y="891.09" width="180" height="30" as="geometry" />
        </mxCell>
        <mxCell id="cykdBwdM0Bds0NIfHY12-158" value="" style="endArrow=oval;html=1;rounded=0;exitX=1;exitY=0.5;exitDx=0;exitDy=0;entryX=0;entryY=0.5;entryDx=0;entryDy=0;startArrow=oval;startFill=1;endFill=1;strokeColor=#7030A0;" parent="1" source="cykdBwdM0Bds0NIfHY12-157" target="cykdBwdM0Bds0NIfHY12-139" edge="1">
          <mxGeometry width="50" height="50" relative="1" as="geometry">
            <mxPoint x="205" y="461" as="sourcePoint" />
            <mxPoint x="307" y="461" as="targetPoint" />
          </mxGeometry>
        </mxCell>
        <mxCell id="cykdBwdM0Bds0NIfHY12-159" value="organizationalUnit" style="rounded=0;whiteSpace=wrap;html=1;strokeColor=#FFFFFF;fillColor=#7030A0;fontColor=#FFFFFF;align=left;spacingLeft=3;" parent="1" vertex="1">
          <mxGeometry x="14.873999999999999" y="830.09" width="180" height="30" as="geometry" />
        </mxCell>
        <mxCell id="cykdBwdM0Bds0NIfHY12-160" value="division" style="rounded=0;whiteSpace=wrap;html=1;strokeColor=#FFFFFF;fillColor=#7030A0;fontColor=#FFFFFF;align=left;spacingLeft=3;" parent="1" vertex="1">
          <mxGeometry x="14.873999999999999" y="860.09" width="180" height="30" as="geometry" />
        </mxCell>
        <mxCell id="cykdBwdM0Bds0NIfHY12-167" value="uniqueIdentifier" style="rounded=0;whiteSpace=wrap;html=1;strokeColor=#FFFFFF;fillColor=#7030A0;fontColor=#FFFFFF;align=left;spacingLeft=3;" parent="1" vertex="1">
          <mxGeometry x="14.873999999999999" y="920.09" width="180" height="30" as="geometry" />
        </mxCell>
        <mxCell id="cykdBwdM0Bds0NIfHY12-168" value="anonymized" style="rounded=0;whiteSpace=wrap;html=1;strokeColor=#FFFFFF;fillColor=#7030A0;fontColor=#FFFFFF;align=left;spacingLeft=3;" parent="1" vertex="1">
          <mxGeometry x="14.873999999999999" y="950.09" width="180" height="30" as="geometry" />
        </mxCell>
        <mxCell id="cykdBwdM0Bds0NIfHY12-193" value="" style="endArrow=oval;html=1;rounded=0;exitX=1;exitY=0.5;exitDx=0;exitDy=0;entryX=0;entryY=0.5;entryDx=0;entryDy=0;startArrow=oval;startFill=1;endFill=1;strokeColor=#7030A0;" parent="1" source="cykdBwdM0Bds0NIfHY12-159" target="cykdBwdM0Bds0NIfHY12-103" edge="1">
          <mxGeometry width="50" height="50" relative="1" as="geometry">
            <mxPoint x="205" y="551" as="sourcePoint" />
            <mxPoint x="307" y="551" as="targetPoint" />
          </mxGeometry>
        </mxCell>
        <mxCell id="cykdBwdM0Bds0NIfHY12-194" value="" style="endArrow=oval;html=1;rounded=0;exitX=1;exitY=0.5;exitDx=0;exitDy=0;entryX=0;entryY=0.5;entryDx=0;entryDy=0;startArrow=oval;startFill=1;endFill=1;strokeColor=#7030A0;" parent="1" source="cykdBwdM0Bds0NIfHY12-160" target="cykdBwdM0Bds0NIfHY12-109" edge="1">
          <mxGeometry width="50" height="50" relative="1" as="geometry">
            <mxPoint x="215" y="561" as="sourcePoint" />
            <mxPoint x="317" y="561" as="targetPoint" />
          </mxGeometry>
        </mxCell>
        <mxCell id="cykdBwdM0Bds0NIfHY12-195" value="" style="endArrow=oval;html=1;rounded=0;exitX=1;exitY=0.5;exitDx=0;exitDy=0;entryX=0;entryY=0.5;entryDx=0;entryDy=0;startArrow=oval;startFill=1;endFill=1;strokeColor=#7030A0;" parent="1" source="cykdBwdM0Bds0NIfHY12-167" target="cykdBwdM0Bds0NIfHY12-181" edge="1">
          <mxGeometry width="50" height="50" relative="1" as="geometry">
            <mxPoint x="225" y="571" as="sourcePoint" />
            <mxPoint x="327" y="571" as="targetPoint" />
          </mxGeometry>
        </mxCell>
        <mxCell id="cykdBwdM0Bds0NIfHY12-196" value="" style="endArrow=oval;html=1;rounded=0;exitX=1;exitY=0.5;exitDx=0;exitDy=0;entryX=0;entryY=0.5;entryDx=0;entryDy=0;startArrow=oval;startFill=1;endFill=1;strokeColor=#7030A0;" parent="1" source="cykdBwdM0Bds0NIfHY12-168" target="cykdBwdM0Bds0NIfHY12-187" edge="1">
          <mxGeometry width="50" height="50" relative="1" as="geometry">
            <mxPoint x="235" y="581" as="sourcePoint" />
            <mxPoint x="337" y="581" as="targetPoint" />
          </mxGeometry>
        </mxCell>
        <mxCell id="cykdBwdM0Bds0NIfHY12-197" value="Account" style="rounded=0;whiteSpace=wrap;html=1;strokeColor=#5B9BD5;fontColor=#5B9BD5;fontStyle=1;verticalAlign=middle;align=left;spacingLeft=3;" parent="1" vertex="1">
          <mxGeometry x="828" y="9" width="218" height="30" as="geometry" />
        </mxCell>
        <mxCell id="cykdBwdM0Bds0NIfHY12-198" value="" style="rounded=0;whiteSpace=wrap;html=1;strokeColor=#5B9BD5;fillColor=#f5f5f5;fontColor=#333333;" parent="1" vertex="1">
          <mxGeometry x="828" y="39" width="218.10979999999998" height="951" as="geometry" />
        </mxCell>
        <mxCell id="cykdBwdM0Bds0NIfHY12-200" value="entryUUID" style="rounded=0;whiteSpace=wrap;html=1;strokeColor=#FFFF00;fillColor=#FFFFCC;fontColor=#000000;align=left;spacingLeft=3;" parent="1" vertex="1">
          <mxGeometry x="847.004" y="76.09" width="180" height="30" as="geometry" />
        </mxCell>
        <mxCell id="cykdBwdM0Bds0NIfHY12-201" value="userPassword" style="rounded=0;whiteSpace=wrap;html=1;strokeColor=#FFFF00;fillColor=#FFFFCC;fontColor=#000000;align=left;spacingLeft=3;" parent="1" vertex="1">
          <mxGeometry x="847.004" y="166.08999999999997" width="180" height="30" as="geometry" />
        </mxCell>
        <mxCell id="cykdBwdM0Bds0NIfHY12-202" value="cn" style="rounded=0;whiteSpace=wrap;html=1;strokeColor=#FFFF00;fillColor=#FFFFCC;fontColor=#000000;align=left;spacingLeft=3;" parent="1" vertex="1">
          <mxGeometry x="847.004" y="226.08999999999997" width="180" height="30" as="geometry" />
        </mxCell>
        <mxCell id="cykdBwdM0Bds0NIfHY12-203" value="krbPrincipalName" style="rounded=0;whiteSpace=wrap;html=1;strokeColor=#FFFF00;fillColor=#FFFFCC;fontColor=#000000;align=left;spacingLeft=3;" parent="1" vertex="1">
          <mxGeometry x="847.004" y="256.09" width="180" height="30" as="geometry" />
        </mxCell>
        <mxCell id="cykdBwdM0Bds0NIfHY12-204" value="title" style="rounded=0;whiteSpace=wrap;html=1;strokeColor=#FFFF00;fillColor=#FFFFCC;fontColor=#000000;align=left;spacingLeft=3;" parent="1" vertex="1">
          <mxGeometry x="847.004" y="316.09" width="180" height="30" as="geometry" />
        </mxCell>
        <mxCell id="cykdBwdM0Bds0NIfHY12-205" value="sn" style="rounded=0;whiteSpace=wrap;html=1;strokeColor=#FFFF00;fillColor=#FFFFCC;fontColor=#000000;align=left;spacingLeft=3;" parent="1" vertex="1">
          <mxGeometry x="847.004" y="346.09" width="180" height="30" as="geometry" />
        </mxCell>
        <mxCell id="cykdBwdM0Bds0NIfHY12-206" value="givenName" style="rounded=0;whiteSpace=wrap;html=1;strokeColor=#FFFF00;fillColor=#FFFFCC;fontColor=#000000;align=left;spacingLeft=3;" parent="1" vertex="1">
          <mxGeometry x="847.004" y="376.09" width="180" height="30" as="geometry" />
        </mxCell>
        <mxCell id="cykdBwdM0Bds0NIfHY12-207" value="initials" style="rounded=0;whiteSpace=wrap;html=1;strokeColor=#FFFF00;fillColor=#FFFFCC;fontColor=#000000;align=left;spacingLeft=3;" parent="1" vertex="1">
          <mxGeometry x="847.004" y="406.09" width="180" height="30" as="geometry" />
        </mxCell>
        <mxCell id="cykdBwdM0Bds0NIfHY12-208" value="mail" style="rounded=0;whiteSpace=wrap;html=1;strokeColor=#FFFF00;fillColor=#FFFFCC;fontColor=#000000;align=left;spacingLeft=3;" parent="1" vertex="1">
          <mxGeometry x="847.004" y="466.09" width="180" height="30" as="geometry" />
        </mxCell>
        <mxCell id="cykdBwdM0Bds0NIfHY12-209" value="telephoneNumber" style="rounded=0;whiteSpace=wrap;html=1;strokeColor=#FFFF00;fillColor=#FFFFCC;fontColor=#000000;align=left;spacingLeft=3;" parent="1" vertex="1">
          <mxGeometry x="847.004" y="496.09" width="180" height="30" as="geometry" />
        </mxCell>
        <mxCell id="cykdBwdM0Bds0NIfHY12-210" value="mobile" style="rounded=0;whiteSpace=wrap;html=1;strokeColor=#FFFF00;fillColor=#FFFFCC;fontColor=#000000;align=left;spacingLeft=3;" parent="1" vertex="1">
          <mxGeometry x="847.004" y="526.0899999999999" width="180" height="30" as="geometry" />
        </mxCell>
        <mxCell id="cykdBwdM0Bds0NIfHY12-211" value="o" style="rounded=0;whiteSpace=wrap;html=1;strokeColor=#FFFF00;fillColor=#FFFFCC;fontColor=#000000;align=left;spacingLeft=3;" parent="1" vertex="1">
          <mxGeometry x="847.004" y="800.0899999999999" width="180" height="30" as="geometry" />
        </mxCell>
        <mxCell id="cykdBwdM0Bds0NIfHY12-212" value="ou" style="rounded=0;whiteSpace=wrap;html=1;strokeColor=#FFFF00;fillColor=#FFFFCC;fontColor=#000000;align=left;spacingLeft=3;" parent="1" vertex="1">
          <mxGeometry x="847.004" y="830.0899999999999" width="180" height="30" as="geometry" />
        </mxCell>
        <mxCell id="cykdBwdM0Bds0NIfHY12-213" value="departmentNumber" style="rounded=0;whiteSpace=wrap;html=1;strokeColor=#FFFF00;fillColor=#FFFFCC;fontColor=#000000;align=left;spacingLeft=3;" parent="1" vertex="1">
          <mxGeometry x="847.004" y="890.0899999999999" width="180" height="30" as="geometry" />
        </mxCell>
        <mxCell id="cykdBwdM0Bds0NIfHY12-214" value="policeIdentifierName" style="rounded=0;whiteSpace=wrap;html=1;strokeColor=#FFFF00;fillColor=#FFFFCC;fontColor=#000000;align=left;spacingLeft=3;" parent="1" vertex="1">
          <mxGeometry x="847.004" y="920.0899999999999" width="180" height="30" as="geometry" />
        </mxCell>
        <mxCell id="cykdBwdM0Bds0NIfHY12-215" value="policeAnonymousName" style="rounded=0;whiteSpace=wrap;html=1;strokeColor=#FFFF00;fillColor=#FFFFCC;fontColor=#000000;align=left;spacingLeft=3;" parent="1" vertex="1">
          <mxGeometry x="847.004" y="950.0899999999999" width="180" height="30" as="geometry" />
        </mxCell>
        <mxCell id="cykdBwdM0Bds0NIfHY12-218" value="IDS Account Group" style="rounded=0;whiteSpace=wrap;html=1;strokeColor=#5B9BD5;fontColor=#5B9BD5;fontStyle=1;verticalAlign=middle;align=left;spacingLeft=3;" parent="1" vertex="1">
          <mxGeometry x="300" y="1008" width="440" height="30" as="geometry" />
        </mxCell>
        <mxCell id="cykdBwdM0Bds0NIfHY12-233" value="" style="shape=table;startSize=0;container=1;collapsible=0;childLayout=tableLayout;fillColor=#5B9BD5;strokeColor=#5B9BD5;fontColor=#FFFFFF;spacingRight=3;spacingLeft=3;" parent="1" vertex="1">
          <mxGeometry x="310" y="1047.99995" width="420" height="30" as="geometry" />
        </mxCell>
        <mxCell id="cykdBwdM0Bds0NIfHY12-240" style="shape=tableRow;horizontal=0;startSize=0;swimlaneHead=0;swimlaneBody=0;strokeColor=inherit;top=0;left=0;bottom=0;right=0;collapsible=0;dropTarget=0;fillColor=none;points=[[0,0.5],[1,0.5]];portConstraint=eastwest;fontColor=#FFFFFF;" parent="cykdBwdM0Bds0NIfHY12-233" vertex="1">
          <mxGeometry width="420" height="30" as="geometry" />
        </mxCell>
        <mxCell id="cykdBwdM0Bds0NIfHY12-241" value="2" style="shape=partialRectangle;html=1;whiteSpace=wrap;connectable=0;strokeColor=inherit;overflow=hidden;fillColor=none;top=0;left=0;bottom=0;right=0;pointerEvents=1;align=right;spacingLeft=3;fontColor=#FFFFFF;" parent="cykdBwdM0Bds0NIfHY12-240" vertex="1">
          <mxGeometry width="21" height="30" as="geometry">
            <mxRectangle width="21" height="30" as="alternateBounds" />
          </mxGeometry>
        </mxCell>
        <mxCell id="cykdBwdM0Bds0NIfHY12-242" value="Group Name" style="shape=partialRectangle;html=1;whiteSpace=wrap;connectable=0;strokeColor=inherit;overflow=hidden;fillColor=none;top=0;left=0;bottom=0;right=0;pointerEvents=1;align=left;spacingLeft=3;fontColor=#FFFFFF;" parent="cykdBwdM0Bds0NIfHY12-240" vertex="1">
          <mxGeometry x="21" width="105" height="30" as="geometry">
            <mxRectangle width="105" height="30" as="alternateBounds" />
          </mxGeometry>
        </mxCell>
        <mxCell id="cykdBwdM0Bds0NIfHY12-243" value="UD_IDS_GRP_GROUP_NAME" style="shape=partialRectangle;html=1;whiteSpace=wrap;connectable=0;strokeColor=inherit;overflow=hidden;fillColor=none;top=0;left=0;bottom=0;right=0;pointerEvents=1;align=left;spacingLeft=3;fontColor=#FFFFFF;" parent="cykdBwdM0Bds0NIfHY12-240" vertex="1">
          <mxGeometry x="126" width="189" height="30" as="geometry">
            <mxRectangle width="189" height="30" as="alternateBounds" />
          </mxGeometry>
        </mxCell>
        <mxCell id="cykdBwdM0Bds0NIfHY12-244" value="String" style="shape=partialRectangle;html=1;whiteSpace=wrap;connectable=0;strokeColor=inherit;overflow=hidden;fillColor=none;top=0;left=0;bottom=0;right=0;pointerEvents=1;align=left;spacingLeft=3;fontColor=#FFFFFF;" parent="cykdBwdM0Bds0NIfHY12-240" vertex="1">
          <mxGeometry x="315" width="56" height="30" as="geometry">
            <mxRectangle width="56" height="30" as="alternateBounds" />
          </mxGeometry>
        </mxCell>
        <mxCell id="cykdBwdM0Bds0NIfHY12-245" value="400" style="shape=partialRectangle;whiteSpace=wrap;connectable=0;strokeColor=inherit;overflow=hidden;fillColor=none;top=0;left=0;bottom=0;right=0;pointerEvents=1;align=right;spacingLeft=3;fontColor=#FFFFFF;spacingRight=3;" parent="cykdBwdM0Bds0NIfHY12-240" vertex="1">
          <mxGeometry x="371" width="49" height="30" as="geometry">
            <mxRectangle width="49" height="30" as="alternateBounds" />
          </mxGeometry>
        </mxCell>
        <mxCell id="cykdBwdM0Bds0NIfHY12-372" value="Group" style="rounded=0;whiteSpace=wrap;html=1;strokeColor=#5B9BD5;fontColor=#5B9BD5;fontStyle=1;verticalAlign=middle;align=left;spacingLeft=3;" parent="1" vertex="1">
          <mxGeometry x="828" y="1008" width="218.10979999999998" height="30" as="geometry" />
        </mxCell>
        <mxCell id="cykdBwdM0Bds0NIfHY12-373" value="" style="rounded=0;whiteSpace=wrap;html=1;strokeColor=#5B9BD5;fillColor=#f5f5f5;fontColor=#333333;" parent="1" vertex="1">
          <mxGeometry x="828" y="1038" width="218.10979999999998" height="50" as="geometry" />
        </mxCell>
        <mxCell id="cykdBwdM0Bds0NIfHY12-376" value="" style="endArrow=block;html=1;rounded=0;entryX=0;entryY=0.5;entryDx=0;entryDy=0;exitX=1;exitY=0.5;exitDx=0;exitDy=0;strokeColor=#000000;startArrow=block;startFill=1;endFill=1;" parent="1" source="cykdBwdM0Bds0NIfHY12-31" target="Jod2S5wvBKbCrdjLZ-1n-1" edge="1">
          <mxGeometry width="50" height="50" relative="1" as="geometry">
            <mxPoint x="560" y="340" as="sourcePoint" />
            <mxPoint x="610" y="290" as="targetPoint" />
          </mxGeometry>
        </mxCell>
        <mxCell id="cykdBwdM0Bds0NIfHY12-378" style="edgeStyle=orthogonalEdgeStyle;rounded=0;orthogonalLoop=1;jettySize=auto;html=1;exitX=1;exitY=0.5;exitDx=0;exitDy=0;entryX=0;entryY=0.5;entryDx=0;entryDy=0;strokeColor=#000000;endArrow=block;endFill=1;" parent="1" source="cykdBwdM0Bds0NIfHY12-37" target="cykdBwdM0Bds0NIfHY12-201" edge="1">
          <mxGeometry relative="1" as="geometry" />
        </mxCell>
        <mxCell id="cykdBwdM0Bds0NIfHY12-379" style="edgeStyle=orthogonalEdgeStyle;rounded=0;orthogonalLoop=1;jettySize=auto;html=1;exitX=1;exitY=0.5;exitDx=0;exitDy=0;entryX=0;entryY=0.5;entryDx=0;entryDy=0;strokeColor=#000000;startArrow=block;startFill=1;endArrow=block;endFill=1;" parent="1" source="cykdBwdM0Bds0NIfHY12-43" target="cykdBwdM0Bds0NIfHY12-202" edge="1">
          <mxGeometry relative="1" as="geometry" />
        </mxCell>
        <mxCell id="cykdBwdM0Bds0NIfHY12-380" style="edgeStyle=orthogonalEdgeStyle;rounded=0;orthogonalLoop=1;jettySize=auto;html=1;exitX=1;exitY=0.5;exitDx=0;exitDy=0;entryX=0;entryY=0.5;entryDx=0;entryDy=0;strokeColor=#000000;startArrow=block;startFill=1;endArrow=block;endFill=1;" parent="1" source="cykdBwdM0Bds0NIfHY12-49" target="cykdBwdM0Bds0NIfHY12-203" edge="1">
          <mxGeometry relative="1" as="geometry" />
        </mxCell>
        <mxCell id="cykdBwdM0Bds0NIfHY12-381" style="edgeStyle=orthogonalEdgeStyle;rounded=0;orthogonalLoop=1;jettySize=auto;html=1;exitX=1;exitY=0.5;exitDx=0;exitDy=0;entryX=0;entryY=0.5;entryDx=0;entryDy=0;strokeColor=#000000;startArrow=block;startFill=1;endArrow=block;endFill=1;" parent="1" source="Jod2S5wvBKbCrdjLZ-1n-16" target="cykdBwdM0Bds0NIfHY12-204" edge="1">
          <mxGeometry relative="1" as="geometry" />
        </mxCell>
        <mxCell id="cykdBwdM0Bds0NIfHY12-382" style="edgeStyle=orthogonalEdgeStyle;rounded=0;orthogonalLoop=1;jettySize=auto;html=1;exitX=1;exitY=0.5;exitDx=0;exitDy=0;entryX=0;entryY=0.5;entryDx=0;entryDy=0;strokeColor=#000000;startArrow=block;startFill=1;endArrow=block;endFill=1;" parent="1" source="cykdBwdM0Bds0NIfHY12-55" target="cykdBwdM0Bds0NIfHY12-205" edge="1">
          <mxGeometry relative="1" as="geometry" />
        </mxCell>
        <mxCell id="cykdBwdM0Bds0NIfHY12-383" style="edgeStyle=orthogonalEdgeStyle;rounded=0;orthogonalLoop=1;jettySize=auto;html=1;exitX=1;exitY=0.5;exitDx=0;exitDy=0;entryX=0;entryY=0.5;entryDx=0;entryDy=0;strokeColor=#000000;startArrow=block;startFill=1;endArrow=block;endFill=1;" parent="1" source="cykdBwdM0Bds0NIfHY12-61" target="cykdBwdM0Bds0NIfHY12-206" edge="1">
          <mxGeometry relative="1" as="geometry" />
        </mxCell>
        <mxCell id="cykdBwdM0Bds0NIfHY12-384" value="" style="endArrow=oval;html=1;rounded=0;exitX=1;exitY=0.5;exitDx=0;exitDy=0;entryX=0;entryY=0.5;entryDx=0;entryDy=0;startArrow=oval;startFill=1;endFill=1;strokeColor=#7030A0;fontColor=#7030A0;labelBorderColor=#7030A0;spacingBottom=3;labelBackgroundColor=none;fontSize=17;" parent="1" source="cykdBwdM0Bds0NIfHY12-6" target="cykdBwdM0Bds0NIfHY12-31" edge="1">
          <mxGeometry width="50" height="50" relative="1" as="geometry">
            <mxPoint x="205" y="101" as="sourcePoint" />
            <mxPoint x="270" y="101" as="targetPoint" />
          </mxGeometry>
        </mxCell>
        <mxCell id="cykdBwdM0Bds0NIfHY12-385" value="&amp;nbsp;T&amp;nbsp;" style="edgeLabel;html=1;align=center;verticalAlign=middle;resizable=0;points=[];fontSize=15;fontColor=#FFFFFF;labelBorderColor=#7030A0;labelBackgroundColor=#7030A0;spacingBottom=5;spacingLeft=3;spacingRight=3;" parent="cykdBwdM0Bds0NIfHY12-384" vertex="1" connectable="0">
          <mxGeometry x="0.0012" y="-2" relative="1" as="geometry">
            <mxPoint as="offset" />
          </mxGeometry>
        </mxCell>
        <mxCell id="cykdBwdM0Bds0NIfHY12-386" style="edgeStyle=orthogonalEdgeStyle;rounded=0;orthogonalLoop=1;jettySize=auto;html=1;exitX=1;exitY=0.5;exitDx=0;exitDy=0;entryX=0;entryY=0.5;entryDx=0;entryDy=0;startArrow=block;startFill=1;endArrow=block;endFill=1;" parent="1" source="cykdBwdM0Bds0NIfHY12-67" target="cykdBwdM0Bds0NIfHY12-207" edge="1">
          <mxGeometry relative="1" as="geometry" />
        </mxCell>
        <mxCell id="cykdBwdM0Bds0NIfHY12-387" style="edgeStyle=orthogonalEdgeStyle;rounded=0;orthogonalLoop=1;jettySize=auto;html=1;exitX=1;exitY=0.5;exitDx=0;exitDy=0;entryX=0;entryY=0.5;entryDx=0;entryDy=0;startArrow=block;startFill=1;endArrow=block;endFill=1;" parent="1" source="cykdBwdM0Bds0NIfHY12-73" target="cykdBwdM0Bds0NIfHY12-208" edge="1">
          <mxGeometry relative="1" as="geometry" />
        </mxCell>
        <mxCell id="cykdBwdM0Bds0NIfHY12-388" style="edgeStyle=orthogonalEdgeStyle;rounded=0;orthogonalLoop=1;jettySize=auto;html=1;exitX=1;exitY=0.5;exitDx=0;exitDy=0;entryX=0;entryY=0.5;entryDx=0;entryDy=0;startArrow=block;startFill=1;endArrow=block;endFill=1;" parent="1" source="cykdBwdM0Bds0NIfHY12-79" target="cykdBwdM0Bds0NIfHY12-209" edge="1">
          <mxGeometry relative="1" as="geometry" />
        </mxCell>
        <mxCell id="cykdBwdM0Bds0NIfHY12-389" style="edgeStyle=orthogonalEdgeStyle;rounded=0;orthogonalLoop=1;jettySize=auto;html=1;exitX=1;exitY=0.5;exitDx=0;exitDy=0;entryX=0;entryY=0.5;entryDx=0;entryDy=0;startArrow=block;startFill=1;endArrow=block;endFill=1;" parent="1" source="cykdBwdM0Bds0NIfHY12-85" target="cykdBwdM0Bds0NIfHY12-210" edge="1">
          <mxGeometry relative="1" as="geometry" />
        </mxCell>
        <mxCell id="cykdBwdM0Bds0NIfHY12-390" style="edgeStyle=orthogonalEdgeStyle;rounded=0;orthogonalLoop=1;jettySize=auto;html=1;exitX=1;exitY=0.5;exitDx=0;exitDy=0;entryX=0;entryY=0.5;entryDx=0;entryDy=0;startArrow=block;startFill=1;endArrow=block;endFill=1;" parent="1" source="cykdBwdM0Bds0NIfHY12-97" target="cykdBwdM0Bds0NIfHY12-211" edge="1">
          <mxGeometry relative="1" as="geometry" />
        </mxCell>
        <mxCell id="cykdBwdM0Bds0NIfHY12-392" style="edgeStyle=orthogonalEdgeStyle;rounded=0;orthogonalLoop=1;jettySize=auto;html=1;exitX=1;exitY=0.5;exitDx=0;exitDy=0;entryX=0;entryY=0.5;entryDx=0;entryDy=0;startArrow=block;startFill=1;endArrow=block;endFill=1;" parent="1" source="cykdBwdM0Bds0NIfHY12-103" target="cykdBwdM0Bds0NIfHY12-212" edge="1">
          <mxGeometry relative="1" as="geometry" />
        </mxCell>
        <mxCell id="cykdBwdM0Bds0NIfHY12-393" style="edgeStyle=orthogonalEdgeStyle;rounded=0;orthogonalLoop=1;jettySize=auto;html=1;exitX=1;exitY=0.5;exitDx=0;exitDy=0;entryX=0;entryY=0.5;entryDx=0;entryDy=0;startArrow=block;startFill=1;endArrow=block;endFill=1;" parent="1" source="cykdBwdM0Bds0NIfHY12-181" target="cykdBwdM0Bds0NIfHY12-214" edge="1">
          <mxGeometry relative="1" as="geometry" />
        </mxCell>
        <mxCell id="cykdBwdM0Bds0NIfHY12-394" style="edgeStyle=orthogonalEdgeStyle;rounded=0;orthogonalLoop=1;jettySize=auto;html=1;exitX=1;exitY=0.5;exitDx=0;exitDy=0;entryX=0;entryY=0.5;entryDx=0;entryDy=0;startArrow=block;startFill=1;endArrow=block;endFill=1;" parent="1" source="cykdBwdM0Bds0NIfHY12-187" target="cykdBwdM0Bds0NIfHY12-215" edge="1">
          <mxGeometry relative="1" as="geometry" />
        </mxCell>
        <mxCell id="cykdBwdM0Bds0NIfHY12-397" value="uniqueMember" style="rounded=0;whiteSpace=wrap;html=1;strokeColor=#FFFF00;fillColor=#FFFFCC;fontColor=#000000;align=left;spacingLeft=3;" parent="1" vertex="1">
          <mxGeometry x="847.004" y="1047.99995" width="180" height="30" as="geometry" />
        </mxCell>
        <mxCell id="cykdBwdM0Bds0NIfHY12-399" style="edgeStyle=orthogonalEdgeStyle;rounded=0;orthogonalLoop=1;jettySize=auto;html=1;exitX=1;exitY=0.5;exitDx=0;exitDy=0;entryX=0;entryY=0.5;entryDx=0;entryDy=0;endArrow=block;endFill=1;startArrow=block;startFill=1;" parent="1" source="cykdBwdM0Bds0NIfHY12-240" target="cykdBwdM0Bds0NIfHY12-397" edge="1">
          <mxGeometry relative="1" as="geometry">
            <mxPoint x="827" y="894" as="sourcePoint" />
            <mxPoint x="810" y="959" as="targetPoint" />
          </mxGeometry>
        </mxCell>
        <mxCell id="cykdBwdM0Bds0NIfHY12-401" value="" style="endArrow=diamondThin;html=1;rounded=0;exitX=0;exitY=0.5;exitDx=0;exitDy=0;strokeColor=#5B9BD5;startArrow=none;startFill=0;endFill=0;edgeStyle=orthogonalEdgeStyle;entryX=0.043;entryY=1.002;entryDx=0;entryDy=0;entryPerimeter=0;" parent="1" source="cykdBwdM0Bds0NIfHY12-218" edge="1">
          <mxGeometry width="50" height="50" relative="1" as="geometry">
            <mxPoint x="300" y="889" as="sourcePoint" />
            <mxPoint x="271.06999999999994" y="989.8419999999999" as="targetPoint" />
          </mxGeometry>
        </mxCell>
        <mxCell id="Jod2S5wvBKbCrdjLZ-1n-1" value="uid" style="rounded=0;whiteSpace=wrap;html=1;strokeColor=#FFFF00;fillColor=#FFFFCC;fontColor=#000000;align=left;spacingLeft=3;" parent="1" vertex="1">
          <mxGeometry x="847.004" y="136.08999999999997" width="180" height="30" as="geometry" />
        </mxCell>
        <mxCell id="Jod2S5wvBKbCrdjLZ-1n-8" value="Title" style="rounded=0;whiteSpace=wrap;html=1;strokeColor=#FFFFFF;fillColor=#7030A0;fontColor=#FFFFFF;align=left;spacingLeft=3;" parent="1" vertex="1">
          <mxGeometry x="14.873999999999995" y="316.09000000000003" width="180" height="30" as="geometry" />
        </mxCell>
        <mxCell id="Jod2S5wvBKbCrdjLZ-1n-9" value="" style="endArrow=oval;html=1;rounded=0;exitX=1;exitY=0.5;exitDx=0;exitDy=0;entryX=0;entryY=0.5;entryDx=0;entryDy=0;startArrow=oval;startFill=1;endFill=1;strokeColor=#7030A0;" parent="1" source="Jod2S5wvBKbCrdjLZ-1n-8" target="Jod2S5wvBKbCrdjLZ-1n-16" edge="1">
          <mxGeometry width="50" height="50" relative="1" as="geometry">
            <mxPoint x="205" y="281" as="sourcePoint" />
            <mxPoint x="270" y="281" as="targetPoint" />
          </mxGeometry>
        </mxCell>
        <mxCell id="Jod2S5wvBKbCrdjLZ-1n-34" style="edgeStyle=orthogonalEdgeStyle;rounded=0;orthogonalLoop=1;jettySize=auto;html=1;exitX=1;exitY=0.5;exitDx=0;exitDy=0;entryX=0;entryY=0.5;entryDx=0;entryDy=0;strokeColor=#000000;endArrow=none;endFill=0;startArrow=block;startFill=1;" parent="1" source="Jod2S5wvBKbCrdjLZ-1n-2" target="cykdBwdM0Bds0NIfHY12-200" edge="1">
          <mxGeometry relative="1" as="geometry">
            <mxPoint x="740" y="161" as="sourcePoint" />
            <mxPoint x="857" y="161" as="targetPoint" />
          </mxGeometry>
        </mxCell>
        <mxCell id="Jod2S5wvBKbCrdjLZ-1n-35" value="displayName" style="rounded=0;whiteSpace=wrap;html=1;strokeColor=#FFFF00;fillColor=#FFFFCC;fontColor=#000000;align=left;spacingLeft=3;" parent="1" vertex="1">
          <mxGeometry x="847.004" y="286.09000000000003" width="180" height="30" as="geometry" />
        </mxCell>
        <mxCell id="Jod2S5wvBKbCrdjLZ-1n-36" style="edgeStyle=orthogonalEdgeStyle;rounded=0;orthogonalLoop=1;jettySize=auto;html=1;exitX=1;exitY=0.5;exitDx=0;exitDy=0;entryX=0;entryY=0.5;entryDx=0;entryDy=0;strokeColor=#000000;startArrow=block;startFill=1;endArrow=block;endFill=1;" parent="1" source="Jod2S5wvBKbCrdjLZ-1n-10" target="Jod2S5wvBKbCrdjLZ-1n-35" edge="1">
          <mxGeometry relative="1" as="geometry">
            <mxPoint x="740" y="221" as="sourcePoint" />
            <mxPoint x="857" y="221" as="targetPoint" />
          </mxGeometry>
        </mxCell>
        <mxCell id="Jod2S5wvBKbCrdjLZ-1n-37" value="Display Name" style="rounded=0;whiteSpace=wrap;html=1;strokeColor=#FFFFFF;fillColor=#7030A0;fontColor=#FFFFFF;align=left;spacingLeft=3;" parent="1" vertex="1">
          <mxGeometry x="14.873999999999995" y="286.09000000000003" width="180" height="30" as="geometry" />
        </mxCell>
        <mxCell id="Jod2S5wvBKbCrdjLZ-1n-38" value="" style="endArrow=oval;html=1;rounded=0;exitX=1;exitY=0.5;exitDx=0;exitDy=0;entryX=0;entryY=0.5;entryDx=0;entryDy=0;startArrow=oval;startFill=1;endFill=1;strokeColor=#7030A0;" parent="1" source="Jod2S5wvBKbCrdjLZ-1n-37" target="Jod2S5wvBKbCrdjLZ-1n-10" edge="1">
          <mxGeometry width="50" height="50" relative="1" as="geometry">
            <mxPoint x="205" y="281" as="sourcePoint" />
            <mxPoint x="270" y="281" as="targetPoint" />
          </mxGeometry>
        </mxCell>
        <mxCell id="Jod2S5wvBKbCrdjLZ-1n-51" value="preferredLanguage" style="rounded=0;whiteSpace=wrap;html=1;strokeColor=#FFFF00;fillColor=#FFFFCC;fontColor=#000000;align=left;spacingLeft=3;" parent="1" vertex="1">
          <mxGeometry x="847.004" y="436.09000000000003" width="180" height="30" as="geometry" />
        </mxCell>
        <mxCell id="Jod2S5wvBKbCrdjLZ-1n-52" style="edgeStyle=orthogonalEdgeStyle;rounded=0;orthogonalLoop=1;jettySize=auto;html=1;exitX=1;exitY=0.5;exitDx=0;exitDy=0;startArrow=block;startFill=1;endArrow=block;endFill=1;" parent="1" source="Jod2S5wvBKbCrdjLZ-1n-45" target="Jod2S5wvBKbCrdjLZ-1n-51" edge="1">
          <mxGeometry relative="1" as="geometry">
            <mxPoint x="740" y="371" as="sourcePoint" />
            <mxPoint x="850" y="392" as="targetPoint" />
          </mxGeometry>
        </mxCell>
        <mxCell id="Jod2S5wvBKbCrdjLZ-1n-53" value="facsimileTelephoneNumber" style="rounded=0;whiteSpace=wrap;html=1;strokeColor=#FFFF00;fillColor=#FFFFCC;fontColor=#000000;align=left;spacingLeft=3;" parent="1" vertex="1">
          <mxGeometry x="847.004" y="558.09" width="180" height="30" as="geometry" />
        </mxCell>
        <mxCell id="Jod2S5wvBKbCrdjLZ-1n-54" value="pager" style="rounded=0;whiteSpace=wrap;html=1;strokeColor=#FFFF00;fillColor=#FFFFCC;fontColor=#000000;align=left;spacingLeft=3;" parent="1" vertex="1">
          <mxGeometry x="847.004" y="590.09" width="180" height="30" as="geometry" />
        </mxCell>
        <mxCell id="Jod2S5wvBKbCrdjLZ-1n-55" style="edgeStyle=orthogonalEdgeStyle;rounded=0;orthogonalLoop=1;jettySize=auto;html=1;exitX=1;exitY=0.5;exitDx=0;exitDy=0;startArrow=block;startFill=1;entryX=0;entryY=0.5;entryDx=0;entryDy=0;endArrow=block;endFill=1;" parent="1" source="cykdBwdM0Bds0NIfHY12-91" target="Jod2S5wvBKbCrdjLZ-1n-53" edge="1">
          <mxGeometry relative="1" as="geometry">
            <mxPoint x="740" y="491" as="sourcePoint" />
            <mxPoint x="810" y="510" as="targetPoint" />
          </mxGeometry>
        </mxCell>
        <mxCell id="Jod2S5wvBKbCrdjLZ-1n-56" style="edgeStyle=orthogonalEdgeStyle;rounded=0;orthogonalLoop=1;jettySize=auto;html=1;exitX=1;exitY=0.5;exitDx=0;exitDy=0;entryX=0;entryY=0.5;entryDx=0;entryDy=0;startArrow=block;startFill=1;endArrow=block;endFill=1;" parent="1" source="Jod2S5wvBKbCrdjLZ-1n-28" target="Jod2S5wvBKbCrdjLZ-1n-54" edge="1">
          <mxGeometry relative="1" as="geometry">
            <mxPoint x="750" y="501" as="sourcePoint" />
            <mxPoint x="867" y="501" as="targetPoint" />
          </mxGeometry>
        </mxCell>
        <mxCell id="Jod2S5wvBKbCrdjLZ-1n-63" value="Language" style="rounded=0;whiteSpace=wrap;html=1;strokeColor=#FFFFFF;fillColor=#7030A0;fontColor=#FFFFFF;align=left;spacingLeft=3;" parent="1" vertex="1">
          <mxGeometry x="14.873999999999995" y="436.09000000000003" width="180" height="30" as="geometry" />
        </mxCell>
        <mxCell id="Jod2S5wvBKbCrdjLZ-1n-64" value="Telephone" style="rounded=0;whiteSpace=wrap;html=1;strokeColor=#FFFFFF;fillColor=#7030A0;fontColor=#FFFFFF;align=left;spacingLeft=3;" parent="1" vertex="1">
          <mxGeometry x="14.873999999999995" y="496.09000000000003" width="180" height="30" as="geometry" />
        </mxCell>
        <mxCell id="Jod2S5wvBKbCrdjLZ-1n-65" value="Mobile" style="rounded=0;whiteSpace=wrap;html=1;strokeColor=#FFFFFF;fillColor=#7030A0;fontColor=#FFFFFF;align=left;spacingLeft=3;" parent="1" vertex="1">
          <mxGeometry x="14.873999999999995" y="526.09" width="180" height="30" as="geometry" />
        </mxCell>
        <mxCell id="Jod2S5wvBKbCrdjLZ-1n-66" value="Facsimile" style="rounded=0;whiteSpace=wrap;html=1;strokeColor=#FFFFFF;fillColor=#7030A0;fontColor=#FFFFFF;align=left;spacingLeft=3;" parent="1" vertex="1">
          <mxGeometry x="14.873999999999995" y="558.09" width="180" height="30" as="geometry" />
        </mxCell>
        <mxCell id="Jod2S5wvBKbCrdjLZ-1n-67" value="Pager" style="rounded=0;whiteSpace=wrap;html=1;strokeColor=#FFFFFF;fillColor=#7030A0;fontColor=#FFFFFF;align=left;spacingLeft=3;" parent="1" vertex="1">
          <mxGeometry x="14.873999999999995" y="590.09" width="180" height="30" as="geometry" />
        </mxCell>
        <mxCell id="Jod2S5wvBKbCrdjLZ-1n-98" value="physicalDeliveryOfficeName" style="rounded=0;whiteSpace=wrap;html=1;strokeColor=#FFFF00;fillColor=#FFFFCC;fontColor=#000000;align=left;spacingLeft=3;" parent="1" vertex="1">
          <mxGeometry x="847.004" y="860.09" width="180" height="30" as="geometry" />
        </mxCell>
        <mxCell id="Jod2S5wvBKbCrdjLZ-1n-99" style="edgeStyle=orthogonalEdgeStyle;rounded=0;orthogonalLoop=1;jettySize=auto;html=1;exitX=1;exitY=0.5;exitDx=0;exitDy=0;entryX=0;entryY=0.5;entryDx=0;entryDy=0;startArrow=block;startFill=1;endArrow=block;endFill=1;" parent="1" source="cykdBwdM0Bds0NIfHY12-139" target="cykdBwdM0Bds0NIfHY12-213" edge="1">
          <mxGeometry relative="1" as="geometry">
            <mxPoint x="740" y="915" as="sourcePoint" />
            <mxPoint x="830" y="875" as="targetPoint" />
          </mxGeometry>
        </mxCell>
        <mxCell id="Jod2S5wvBKbCrdjLZ-1n-100" style="edgeStyle=orthogonalEdgeStyle;rounded=0;orthogonalLoop=1;jettySize=auto;html=1;exitX=1;exitY=0.5;exitDx=0;exitDy=0;entryX=0;entryY=0.5;entryDx=0;entryDy=0;startArrow=block;startFill=1;endArrow=block;endFill=1;" parent="1" source="cykdBwdM0Bds0NIfHY12-109" target="Jod2S5wvBKbCrdjLZ-1n-98" edge="1">
          <mxGeometry relative="1" as="geometry">
            <mxPoint x="750" y="925" as="sourcePoint" />
            <mxPoint x="867" y="925" as="targetPoint" />
          </mxGeometry>
        </mxCell>
        <mxCell id="Jod2S5wvBKbCrdjLZ-1n-102" value="" style="endArrow=oval;html=1;rounded=0;exitX=1;exitY=0.5;exitDx=0;exitDy=0;entryX=0;entryY=0.5;entryDx=0;entryDy=0;startArrow=oval;startFill=1;endFill=1;strokeColor=#7030A0;" parent="1" source="Jod2S5wvBKbCrdjLZ-1n-63" target="Jod2S5wvBKbCrdjLZ-1n-45" edge="1">
          <mxGeometry width="50" height="50" relative="1" as="geometry">
            <mxPoint x="205" y="461" as="sourcePoint" />
            <mxPoint x="270" y="461" as="targetPoint" />
          </mxGeometry>
        </mxCell>
        <mxCell id="Jod2S5wvBKbCrdjLZ-1n-103" value="" style="endArrow=oval;html=1;rounded=0;exitX=1;exitY=0.5;exitDx=0;exitDy=0;startArrow=oval;startFill=1;endFill=1;strokeColor=#7030A0;" parent="1" source="Jod2S5wvBKbCrdjLZ-1n-64" target="cykdBwdM0Bds0NIfHY12-79" edge="1">
          <mxGeometry width="50" height="50" relative="1" as="geometry">
            <mxPoint x="215" y="471" as="sourcePoint" />
            <mxPoint x="280" y="471" as="targetPoint" />
          </mxGeometry>
        </mxCell>
        <mxCell id="Jod2S5wvBKbCrdjLZ-1n-104" value="" style="endArrow=oval;html=1;rounded=0;exitX=1;exitY=0.5;exitDx=0;exitDy=0;startArrow=oval;startFill=1;endFill=1;strokeColor=#7030A0;" parent="1" source="Jod2S5wvBKbCrdjLZ-1n-65" target="cykdBwdM0Bds0NIfHY12-85" edge="1">
          <mxGeometry width="50" height="50" relative="1" as="geometry">
            <mxPoint x="225" y="481" as="sourcePoint" />
            <mxPoint x="290" y="481" as="targetPoint" />
          </mxGeometry>
        </mxCell>
        <mxCell id="Jod2S5wvBKbCrdjLZ-1n-105" value="" style="endArrow=oval;html=1;rounded=0;exitX=1;exitY=0.5;exitDx=0;exitDy=0;entryX=0;entryY=0.5;entryDx=0;entryDy=0;startArrow=oval;startFill=1;endFill=1;strokeColor=#7030A0;" parent="1" source="Jod2S5wvBKbCrdjLZ-1n-66" target="cykdBwdM0Bds0NIfHY12-91" edge="1">
          <mxGeometry width="50" height="50" relative="1" as="geometry">
            <mxPoint x="235" y="491" as="sourcePoint" />
            <mxPoint x="300" y="491" as="targetPoint" />
          </mxGeometry>
        </mxCell>
        <mxCell id="Jod2S5wvBKbCrdjLZ-1n-106" value="" style="endArrow=oval;html=1;rounded=0;exitX=1;exitY=0.5;exitDx=0;exitDy=0;entryX=0;entryY=0.5;entryDx=0;entryDy=0;startArrow=oval;startFill=1;endFill=1;strokeColor=#7030A0;" parent="1" source="Jod2S5wvBKbCrdjLZ-1n-67" target="Jod2S5wvBKbCrdjLZ-1n-28" edge="1">
          <mxGeometry width="50" height="50" relative="1" as="geometry">
            <mxPoint x="245" y="501" as="sourcePoint" />
            <mxPoint x="310" y="501" as="targetPoint" />
          </mxGeometry>
        </mxCell>
        <mxCell id="Jod2S5wvBKbCrdjLZ-1n-107" value="orclSAMAccountName" style="rounded=0;whiteSpace=wrap;html=1;strokeColor=#FFFF00;fillColor=#FFFFCC;fontColor=#000000;align=left;spacingLeft=3;" parent="1" vertex="1">
          <mxGeometry x="847.004" y="196.09000000000003" width="180" height="30" as="geometry" />
        </mxCell>
        <mxCell id="Jod2S5wvBKbCrdjLZ-1n-108" value="" style="endArrow=block;html=1;rounded=0;entryX=0;entryY=0.5;entryDx=0;entryDy=0;exitX=1;exitY=0.5;exitDx=0;exitDy=0;strokeColor=#000000;startArrow=block;startFill=1;endFill=1;" parent="1" source="Jod2S5wvBKbCrdjLZ-1n-57" target="Jod2S5wvBKbCrdjLZ-1n-107" edge="1">
          <mxGeometry width="50" height="50" relative="1" as="geometry">
            <mxPoint x="740" y="131" as="sourcePoint" />
            <mxPoint x="857" y="131" as="targetPoint" />
          </mxGeometry>
        </mxCell>
        <mxCell id="Jod2S5wvBKbCrdjLZ-1n-109" value="st" style="rounded=0;whiteSpace=wrap;html=1;strokeColor=#FFFF00;fillColor=#FFFFCC;fontColor=#000000;align=left;spacingLeft=3;" parent="1" vertex="1">
          <mxGeometry x="847.004" y="620.09" width="180" height="30" as="geometry" />
        </mxCell>
        <mxCell id="Jod2S5wvBKbCrdjLZ-1n-110" value="street" style="rounded=0;whiteSpace=wrap;html=1;strokeColor=#FFFF00;fillColor=#FFFFCC;fontColor=#000000;align=left;spacingLeft=3;" parent="1" vertex="1">
          <mxGeometry x="847.004" y="650.09" width="180" height="30" as="geometry" />
        </mxCell>
        <mxCell id="Jod2S5wvBKbCrdjLZ-1n-111" value="postalCode" style="rounded=0;whiteSpace=wrap;html=1;strokeColor=#FFFF00;fillColor=#FFFFCC;fontColor=#000000;align=left;spacingLeft=3;" parent="1" vertex="1">
          <mxGeometry x="847.004" y="680.09" width="180" height="30" as="geometry" />
        </mxCell>
        <mxCell id="Jod2S5wvBKbCrdjLZ-1n-112" value="l" style="rounded=0;whiteSpace=wrap;html=1;strokeColor=#FFFF00;fillColor=#FFFFCC;fontColor=#000000;align=left;spacingLeft=3;" parent="1" vertex="1">
          <mxGeometry x="847.004" y="710.09" width="180" height="30" as="geometry" />
        </mxCell>
        <mxCell id="Jod2S5wvBKbCrdjLZ-1n-113" value="postalAddress" style="rounded=0;whiteSpace=wrap;html=1;strokeColor=#FFFF00;fillColor=#FFFFCC;fontColor=#000000;align=left;spacingLeft=3;" parent="1" vertex="1">
          <mxGeometry x="847.004" y="740.09" width="180" height="30" as="geometry" />
        </mxCell>
        <mxCell id="Jod2S5wvBKbCrdjLZ-1n-114" value="postOfficeBox" style="rounded=0;whiteSpace=wrap;html=1;strokeColor=#FFFF00;fillColor=#FFFFCC;fontColor=#000000;align=left;spacingLeft=3;" parent="1" vertex="1">
          <mxGeometry x="847.004" y="770.09" width="180" height="30" as="geometry" />
        </mxCell>
        <mxCell id="Jod2S5wvBKbCrdjLZ-1n-115" style="edgeStyle=orthogonalEdgeStyle;rounded=0;orthogonalLoop=1;jettySize=auto;html=1;exitX=1;exitY=0.5;exitDx=0;exitDy=0;entryX=0;entryY=0.5;entryDx=0;entryDy=0;startArrow=block;startFill=1;endArrow=block;endFill=1;" parent="1" source="Jod2S5wvBKbCrdjLZ-1n-22" target="Jod2S5wvBKbCrdjLZ-1n-109" edge="1">
          <mxGeometry relative="1" as="geometry">
            <mxPoint x="740" y="585" as="sourcePoint" />
            <mxPoint x="857" y="585" as="targetPoint" />
          </mxGeometry>
        </mxCell>
        <mxCell id="Jod2S5wvBKbCrdjLZ-1n-116" style="edgeStyle=orthogonalEdgeStyle;rounded=0;orthogonalLoop=1;jettySize=auto;html=1;exitX=1;exitY=0.5;exitDx=0;exitDy=0;entryX=0;entryY=0.5;entryDx=0;entryDy=0;startArrow=block;startFill=1;endArrow=block;endFill=1;" parent="1" source="Jod2S5wvBKbCrdjLZ-1n-86" target="Jod2S5wvBKbCrdjLZ-1n-110" edge="1">
          <mxGeometry relative="1" as="geometry">
            <mxPoint x="750" y="595" as="sourcePoint" />
            <mxPoint x="867" y="595" as="targetPoint" />
          </mxGeometry>
        </mxCell>
        <mxCell id="Jod2S5wvBKbCrdjLZ-1n-117" style="edgeStyle=orthogonalEdgeStyle;rounded=0;orthogonalLoop=1;jettySize=auto;html=1;exitX=1;exitY=0.5;exitDx=0;exitDy=0;entryX=0;entryY=0.5;entryDx=0;entryDy=0;startArrow=block;startFill=1;endArrow=block;endFill=1;" parent="1" source="Jod2S5wvBKbCrdjLZ-1n-80" target="Jod2S5wvBKbCrdjLZ-1n-111" edge="1">
          <mxGeometry relative="1" as="geometry">
            <mxPoint x="760" y="605" as="sourcePoint" />
            <mxPoint x="877" y="605" as="targetPoint" />
          </mxGeometry>
        </mxCell>
        <mxCell id="Jod2S5wvBKbCrdjLZ-1n-118" style="edgeStyle=orthogonalEdgeStyle;rounded=0;orthogonalLoop=1;jettySize=auto;html=1;exitX=1;exitY=0.5;exitDx=0;exitDy=0;entryX=0;entryY=0.5;entryDx=0;entryDy=0;startArrow=block;startFill=1;endArrow=block;endFill=1;" parent="1" source="Jod2S5wvBKbCrdjLZ-1n-74" target="Jod2S5wvBKbCrdjLZ-1n-112" edge="1">
          <mxGeometry relative="1" as="geometry">
            <mxPoint x="770" y="615" as="sourcePoint" />
            <mxPoint x="887" y="615" as="targetPoint" />
          </mxGeometry>
        </mxCell>
        <mxCell id="Jod2S5wvBKbCrdjLZ-1n-119" style="edgeStyle=orthogonalEdgeStyle;rounded=0;orthogonalLoop=1;jettySize=auto;html=1;exitX=1;exitY=0.5;exitDx=0;exitDy=0;entryX=0;entryY=0.5;entryDx=0;entryDy=0;startArrow=block;startFill=1;endArrow=block;endFill=1;" parent="1" source="Jod2S5wvBKbCrdjLZ-1n-68" target="Jod2S5wvBKbCrdjLZ-1n-113" edge="1">
          <mxGeometry relative="1" as="geometry">
            <mxPoint x="780" y="625" as="sourcePoint" />
            <mxPoint x="897" y="625" as="targetPoint" />
          </mxGeometry>
        </mxCell>
        <mxCell id="Jod2S5wvBKbCrdjLZ-1n-120" style="edgeStyle=orthogonalEdgeStyle;rounded=0;orthogonalLoop=1;jettySize=auto;html=1;exitX=1;exitY=0.5;exitDx=0;exitDy=0;startArrow=block;startFill=1;endArrow=block;endFill=1;" parent="1" source="Jod2S5wvBKbCrdjLZ-1n-92" target="Jod2S5wvBKbCrdjLZ-1n-114" edge="1">
          <mxGeometry relative="1" as="geometry">
            <mxPoint x="790" y="635" as="sourcePoint" />
            <mxPoint x="830" y="756" as="targetPoint" />
          </mxGeometry>
        </mxCell>
        <mxCell id="Jod2S5wvBKbCrdjLZ-1n-121" value="Pager" style="rounded=0;whiteSpace=wrap;html=1;strokeColor=#FFFFFF;fillColor=#7030A0;fontColor=#FFFFFF;align=left;spacingLeft=3;" parent="1" vertex="1">
          <mxGeometry x="14.873999999999995" y="620.09" width="180" height="30" as="geometry" />
        </mxCell>
        <mxCell id="Jod2S5wvBKbCrdjLZ-1n-122" value="Pager" style="rounded=0;whiteSpace=wrap;html=1;strokeColor=#FFFFFF;fillColor=#7030A0;fontColor=#FFFFFF;align=left;spacingLeft=3;" parent="1" vertex="1">
          <mxGeometry x="14.873999999999995" y="650.09" width="180" height="30" as="geometry" />
        </mxCell>
        <mxCell id="Jod2S5wvBKbCrdjLZ-1n-123" value="Pager" style="rounded=0;whiteSpace=wrap;html=1;strokeColor=#FFFFFF;fillColor=#7030A0;fontColor=#FFFFFF;align=left;spacingLeft=3;" parent="1" vertex="1">
          <mxGeometry x="14.873999999999995" y="680.09" width="180" height="30" as="geometry" />
        </mxCell>
        <mxCell id="Jod2S5wvBKbCrdjLZ-1n-124" value="Pager" style="rounded=0;whiteSpace=wrap;html=1;strokeColor=#FFFFFF;fillColor=#7030A0;fontColor=#FFFFFF;align=left;spacingLeft=3;" parent="1" vertex="1">
          <mxGeometry x="14.873999999999995" y="710.09" width="180" height="30" as="geometry" />
        </mxCell>
        <mxCell id="Jod2S5wvBKbCrdjLZ-1n-125" value="Pager" style="rounded=0;whiteSpace=wrap;html=1;strokeColor=#FFFFFF;fillColor=#7030A0;fontColor=#FFFFFF;align=left;spacingLeft=3;" parent="1" vertex="1">
          <mxGeometry x="14.873999999999995" y="740.09" width="180" height="30" as="geometry" />
        </mxCell>
        <mxCell id="Jod2S5wvBKbCrdjLZ-1n-126" value="Pager" style="rounded=0;whiteSpace=wrap;html=1;strokeColor=#FFFFFF;fillColor=#7030A0;fontColor=#FFFFFF;align=left;spacingLeft=3;" parent="1" vertex="1">
          <mxGeometry x="14.873999999999995" y="770.09" width="180" height="30" as="geometry" />
        </mxCell>
        <mxCell id="Jod2S5wvBKbCrdjLZ-1n-127" value="" style="endArrow=oval;html=1;rounded=0;exitX=1;exitY=0.5;exitDx=0;exitDy=0;startArrow=oval;startFill=1;endFill=1;strokeColor=#7030A0;" parent="1" source="Jod2S5wvBKbCrdjLZ-1n-126" target="Jod2S5wvBKbCrdjLZ-1n-92" edge="1">
          <mxGeometry width="50" height="50" relative="1" as="geometry">
            <mxPoint x="205" y="585" as="sourcePoint" />
            <mxPoint x="270" y="585" as="targetPoint" />
          </mxGeometry>
        </mxCell>
        <mxCell id="Jod2S5wvBKbCrdjLZ-1n-128" value="" style="endArrow=oval;html=1;rounded=0;exitX=1;exitY=0.5;exitDx=0;exitDy=0;entryX=0;entryY=0.5;entryDx=0;entryDy=0;startArrow=oval;startFill=1;endFill=1;strokeColor=#7030A0;" parent="1" source="Jod2S5wvBKbCrdjLZ-1n-125" target="Jod2S5wvBKbCrdjLZ-1n-68" edge="1">
          <mxGeometry width="50" height="50" relative="1" as="geometry">
            <mxPoint x="215" y="595" as="sourcePoint" />
            <mxPoint x="280" y="595" as="targetPoint" />
          </mxGeometry>
        </mxCell>
        <mxCell id="Jod2S5wvBKbCrdjLZ-1n-129" value="" style="endArrow=oval;html=1;rounded=0;exitX=1;exitY=0.5;exitDx=0;exitDy=0;entryX=0;entryY=0.5;entryDx=0;entryDy=0;startArrow=oval;startFill=1;endFill=1;strokeColor=#7030A0;" parent="1" source="Jod2S5wvBKbCrdjLZ-1n-124" target="Jod2S5wvBKbCrdjLZ-1n-74" edge="1">
          <mxGeometry width="50" height="50" relative="1" as="geometry">
            <mxPoint x="225" y="605" as="sourcePoint" />
            <mxPoint x="290" y="605" as="targetPoint" />
          </mxGeometry>
        </mxCell>
        <mxCell id="Jod2S5wvBKbCrdjLZ-1n-130" value="" style="endArrow=oval;html=1;rounded=0;exitX=1;exitY=0.5;exitDx=0;exitDy=0;entryX=0;entryY=0.5;entryDx=0;entryDy=0;startArrow=oval;startFill=1;endFill=1;strokeColor=#7030A0;" parent="1" source="Jod2S5wvBKbCrdjLZ-1n-123" target="Jod2S5wvBKbCrdjLZ-1n-80" edge="1">
          <mxGeometry width="50" height="50" relative="1" as="geometry">
            <mxPoint x="235" y="615" as="sourcePoint" />
            <mxPoint x="300" y="615" as="targetPoint" />
          </mxGeometry>
        </mxCell>
        <mxCell id="Jod2S5wvBKbCrdjLZ-1n-131" value="" style="endArrow=oval;html=1;rounded=0;exitX=1;exitY=0.5;exitDx=0;exitDy=0;entryX=0;entryY=0.5;entryDx=0;entryDy=0;startArrow=oval;startFill=1;endFill=1;strokeColor=#7030A0;" parent="1" source="Jod2S5wvBKbCrdjLZ-1n-122" target="Jod2S5wvBKbCrdjLZ-1n-86" edge="1">
          <mxGeometry width="50" height="50" relative="1" as="geometry">
            <mxPoint x="245" y="625" as="sourcePoint" />
            <mxPoint x="310" y="625" as="targetPoint" />
          </mxGeometry>
        </mxCell>
        <mxCell id="Jod2S5wvBKbCrdjLZ-1n-133" value="" style="endArrow=oval;html=1;rounded=0;exitX=1;exitY=0.5;exitDx=0;exitDy=0;entryX=0;entryY=0.5;entryDx=0;entryDy=0;startArrow=oval;startFill=1;endFill=1;strokeColor=#7030A0;" parent="1" source="Jod2S5wvBKbCrdjLZ-1n-121" target="Jod2S5wvBKbCrdjLZ-1n-22" edge="1">
          <mxGeometry width="50" height="50" relative="1" as="geometry">
            <mxPoint x="205" y="585" as="sourcePoint" />
            <mxPoint x="270" y="585" as="targetPoint" />
          </mxGeometry>
        </mxCell>
        <mxCell id="Jod2S5wvBKbCrdjLZ-1n-148" value="employeeType" style="rounded=0;whiteSpace=wrap;html=1;strokeColor=#FFFF00;fillColor=#FFFFCC;fontColor=#000000;align=left;spacingLeft=3;" parent="1" vertex="1">
          <mxGeometry x="847.004" y="106.08999999999997" width="180" height="30" as="geometry" />
        </mxCell>
        <mxCell id="Jod2S5wvBKbCrdjLZ-1n-149" value="" style="endArrow=block;html=1;rounded=0;entryX=0;entryY=0.5;entryDx=0;entryDy=0;exitX=1;exitY=0.5;exitDx=0;exitDy=0;strokeColor=#000000;startArrow=block;startFill=1;endFill=1;" parent="1" source="Jod2S5wvBKbCrdjLZ-1n-140" target="Jod2S5wvBKbCrdjLZ-1n-148" edge="1">
          <mxGeometry width="50" height="50" relative="1" as="geometry">
            <mxPoint x="740" y="161" as="sourcePoint" />
            <mxPoint x="857" y="161" as="targetPoint" />
          </mxGeometry>
        </mxCell>
        <mxCell id="Jod2S5wvBKbCrdjLZ-1n-150" value="User Role" style="rounded=0;whiteSpace=wrap;html=1;strokeColor=#FFFFFF;fillColor=#7030A0;fontColor=#FFFFFF;align=left;spacingLeft=3;" parent="1" vertex="1">
          <mxGeometry x="14.873999999999999" y="106.09" width="180" height="30" as="geometry" />
        </mxCell>
        <mxCell id="Jod2S5wvBKbCrdjLZ-1n-151" value="" style="endArrow=oval;html=1;rounded=0;exitX=1;exitY=0.5;exitDx=0;exitDy=0;entryX=0;entryY=0.5;entryDx=0;entryDy=0;startArrow=oval;startFill=1;endFill=1;strokeColor=#7030A0;" parent="1" source="Jod2S5wvBKbCrdjLZ-1n-150" target="Jod2S5wvBKbCrdjLZ-1n-140" edge="1">
          <mxGeometry width="50" height="50" relative="1" as="geometry">
            <mxPoint x="205" y="191" as="sourcePoint" />
            <mxPoint x="270" y="191" as="targetPoint" />
          </mxGeometry>
        </mxCell>
      </root>
    </mxGraphModel>
  </diagram>
  <diagram id="-3epSQjXOjXqxw670nPy" name="IDS Formular">
    <mxGraphModel dx="1420" dy="13" grid="1" gridSize="10" guides="1" tooltips="1" connect="1" arrows="1" fold="1" page="1" pageScale="1" pageWidth="1169" pageHeight="827" math="0" shadow="0">
      <root>
        <mxCell id="0" />
        <mxCell id="1" parent="0" />
        <mxCell id="inlszF1YrQIbjWRIglU9-1" value="" style="rounded=0;whiteSpace=wrap;html=1;" vertex="1" parent="1">
          <mxGeometry x="348" y="890" width="155.51149999999998" height="29.9212" as="geometry" />
        </mxCell>
        <mxCell id="inlszF1YrQIbjWRIglU9-2" value="Hierarchy" style="text;strokeColor=none;align=right;fillColor=none;html=1;verticalAlign=middle;whiteSpace=wrap;rounded=0;" vertex="1" parent="1">
          <mxGeometry x="250" y="890" width="90.551" height="29.9212" as="geometry" />
        </mxCell>
        <mxCell id="inlszF1YrQIbjWRIglU9-3" value="" style="rounded=0;whiteSpace=wrap;html=1;" vertex="1" parent="1">
          <mxGeometry x="622" y="890" width="155.51149999999998" height="29.9212" as="geometry" />
        </mxCell>
        <mxCell id="inlszF1YrQIbjWRIglU9-4" value="Identifier" style="text;strokeColor=none;align=right;fillColor=none;html=1;verticalAlign=middle;whiteSpace=wrap;rounded=0;" vertex="1" parent="1">
          <mxGeometry x="522" y="890" width="91.55" height="29.92" as="geometry" />
        </mxCell>
        <mxCell id="inlszF1YrQIbjWRIglU9-5" value="" style="rounded=0;whiteSpace=wrap;html=1;" vertex="1" parent="1">
          <mxGeometry x="348" y="930" width="155.51149999999998" height="29.9212" as="geometry" />
        </mxCell>
        <mxCell id="inlszF1YrQIbjWRIglU9-6" value="Login Name" style="text;strokeColor=none;align=right;fillColor=none;html=1;verticalAlign=middle;whiteSpace=wrap;rounded=0;" vertex="1" parent="1">
          <mxGeometry x="250" y="930" width="90.551" height="29.9212" as="geometry" />
        </mxCell>
        <mxCell id="inlszF1YrQIbjWRIglU9-7" value="" style="rounded=0;whiteSpace=wrap;html=1;" vertex="1" parent="1">
          <mxGeometry x="622" y="930" width="155.51149999999998" height="29.9212" as="geometry" />
        </mxCell>
        <mxCell id="inlszF1YrQIbjWRIglU9-8" value="Unified Login" style="text;strokeColor=none;align=right;fillColor=none;html=1;verticalAlign=middle;whiteSpace=wrap;rounded=0;" vertex="1" parent="1">
          <mxGeometry x="512" y="930" width="101.55" height="29.92" as="geometry" />
        </mxCell>
        <mxCell id="inlszF1YrQIbjWRIglU9-9" value="" style="rounded=0;whiteSpace=wrap;html=1;" vertex="1" parent="1">
          <mxGeometry x="348" y="970" width="155.51149999999998" height="29.9212" as="geometry" />
        </mxCell>
        <mxCell id="inlszF1YrQIbjWRIglU9-10" value="Password" style="text;strokeColor=none;align=right;fillColor=none;html=1;verticalAlign=middle;whiteSpace=wrap;rounded=0;" vertex="1" parent="1">
          <mxGeometry x="250" y="970" width="90.551" height="29.9212" as="geometry" />
        </mxCell>
        <mxCell id="inlszF1YrQIbjWRIglU9-11" value="" style="rounded=0;whiteSpace=wrap;html=1;" vertex="1" parent="1">
          <mxGeometry x="622" y="970" width="155.51149999999998" height="29.9212" as="geometry" />
        </mxCell>
        <mxCell id="inlszF1YrQIbjWRIglU9-12" value="Anonymous Login" style="text;strokeColor=none;align=right;fillColor=none;html=1;verticalAlign=middle;whiteSpace=wrap;rounded=0;" vertex="1" parent="1">
          <mxGeometry x="512" y="970" width="101.55" height="29.92" as="geometry" />
        </mxCell>
        <mxCell id="inlszF1YrQIbjWRIglU9-13" value="" style="rounded=0;whiteSpace=wrap;html=1;" vertex="1" parent="1">
          <mxGeometry x="348" y="1010" width="155.51149999999998" height="29.9212" as="geometry" />
        </mxCell>
        <mxCell id="inlszF1YrQIbjWRIglU9-14" value="Common Name" style="text;strokeColor=none;align=right;fillColor=none;html=1;verticalAlign=middle;whiteSpace=wrap;rounded=0;" vertex="1" parent="1">
          <mxGeometry x="250" y="1010" width="90.551" height="29.9212" as="geometry" />
        </mxCell>
        <mxCell id="inlszF1YrQIbjWRIglU9-15" value="" style="rounded=0;whiteSpace=wrap;html=1;" vertex="1" parent="1">
          <mxGeometry x="622" y="1010" width="155.51149999999998" height="29.9212" as="geometry" />
        </mxCell>
        <mxCell id="inlszF1YrQIbjWRIglU9-16" value="e-Mail" style="text;strokeColor=none;align=right;fillColor=none;html=1;verticalAlign=middle;whiteSpace=wrap;rounded=0;" vertex="1" parent="1">
          <mxGeometry x="512" y="1010" width="101.55" height="29.92" as="geometry" />
        </mxCell>
        <mxCell id="inlszF1YrQIbjWRIglU9-17" value="" style="rounded=0;whiteSpace=wrap;html=1;" vertex="1" parent="1">
          <mxGeometry x="348" y="1050" width="155.51149999999998" height="29.9212" as="geometry" />
        </mxCell>
        <mxCell id="inlszF1YrQIbjWRIglU9-18" value="Principal Name" style="text;strokeColor=none;align=right;fillColor=none;html=1;verticalAlign=middle;whiteSpace=wrap;rounded=0;" vertex="1" parent="1">
          <mxGeometry x="250" y="1050" width="90.551" height="29.9212" as="geometry" />
        </mxCell>
        <mxCell id="inlszF1YrQIbjWRIglU9-19" value="" style="rounded=0;whiteSpace=wrap;html=1;" vertex="1" parent="1">
          <mxGeometry x="622" y="1050" width="155.51149999999998" height="29.9212" as="geometry" />
        </mxCell>
        <mxCell id="inlszF1YrQIbjWRIglU9-20" value="Telephone" style="text;strokeColor=none;align=right;fillColor=none;html=1;verticalAlign=middle;whiteSpace=wrap;rounded=0;" vertex="1" parent="1">
          <mxGeometry x="512" y="1050" width="101.55" height="29.92" as="geometry" />
        </mxCell>
        <mxCell id="inlszF1YrQIbjWRIglU9-21" value="" style="rounded=0;whiteSpace=wrap;html=1;" vertex="1" parent="1">
          <mxGeometry x="348" y="1090" width="155.51149999999998" height="29.9212" as="geometry" />
        </mxCell>
        <mxCell id="inlszF1YrQIbjWRIglU9-22" value="Title" style="text;strokeColor=none;align=right;fillColor=none;html=1;verticalAlign=middle;whiteSpace=wrap;rounded=0;" vertex="1" parent="1">
          <mxGeometry x="250" y="1090" width="90.551" height="29.9212" as="geometry" />
        </mxCell>
        <mxCell id="inlszF1YrQIbjWRIglU9-23" value="" style="rounded=0;whiteSpace=wrap;html=1;" vertex="1" parent="1">
          <mxGeometry x="622" y="1090" width="155.51149999999998" height="29.9212" as="geometry" />
        </mxCell>
        <mxCell id="inlszF1YrQIbjWRIglU9-24" value="Language" style="text;strokeColor=none;align=right;fillColor=none;html=1;verticalAlign=middle;whiteSpace=wrap;rounded=0;" vertex="1" parent="1">
          <mxGeometry x="512" y="1090" width="101.55" height="29.92" as="geometry" />
        </mxCell>
        <mxCell id="inlszF1YrQIbjWRIglU9-25" value="" style="rounded=0;whiteSpace=wrap;html=1;" vertex="1" parent="1">
          <mxGeometry x="348" y="1130" width="155.51149999999998" height="29.9212" as="geometry" />
        </mxCell>
        <mxCell id="inlszF1YrQIbjWRIglU9-26" value="Last Name" style="text;strokeColor=none;align=right;fillColor=none;html=1;verticalAlign=middle;whiteSpace=wrap;rounded=0;" vertex="1" parent="1">
          <mxGeometry x="250" y="1130" width="90.551" height="29.9212" as="geometry" />
        </mxCell>
        <mxCell id="inlszF1YrQIbjWRIglU9-27" value="" style="rounded=0;whiteSpace=wrap;html=1;" vertex="1" parent="1">
          <mxGeometry x="622" y="1130" width="155.51149999999998" height="29.9212" as="geometry" />
        </mxCell>
        <mxCell id="inlszF1YrQIbjWRIglU9-28" value="Participant" style="text;strokeColor=none;align=right;fillColor=none;html=1;verticalAlign=middle;whiteSpace=wrap;rounded=0;" vertex="1" parent="1">
          <mxGeometry x="512" y="1130" width="101.55" height="29.92" as="geometry" />
        </mxCell>
        <mxCell id="inlszF1YrQIbjWRIglU9-29" value="" style="rounded=0;whiteSpace=wrap;html=1;" vertex="1" parent="1">
          <mxGeometry x="348" y="1170" width="155.51149999999998" height="29.9212" as="geometry" />
        </mxCell>
        <mxCell id="inlszF1YrQIbjWRIglU9-30" value="First Name" style="text;strokeColor=none;align=right;fillColor=none;html=1;verticalAlign=middle;whiteSpace=wrap;rounded=0;" vertex="1" parent="1">
          <mxGeometry x="250" y="1170" width="90.551" height="29.9212" as="geometry" />
        </mxCell>
        <mxCell id="inlszF1YrQIbjWRIglU9-31" value="" style="rounded=0;whiteSpace=wrap;html=1;" vertex="1" parent="1">
          <mxGeometry x="622" y="1170" width="155.51149999999998" height="29.9212" as="geometry" />
        </mxCell>
        <mxCell id="inlszF1YrQIbjWRIglU9-32" value="Organisation" style="text;strokeColor=none;align=right;fillColor=none;html=1;verticalAlign=middle;whiteSpace=wrap;rounded=0;" vertex="1" parent="1">
          <mxGeometry x="512" y="1170" width="101.55" height="29.92" as="geometry" />
        </mxCell>
        <mxCell id="inlszF1YrQIbjWRIglU9-33" value="" style="rounded=0;whiteSpace=wrap;html=1;" vertex="1" parent="1">
          <mxGeometry x="348" y="1210" width="155.51149999999998" height="29.9212" as="geometry" />
        </mxCell>
        <mxCell id="inlszF1YrQIbjWRIglU9-34" value="Middle Name" style="text;strokeColor=none;align=right;fillColor=none;html=1;verticalAlign=middle;whiteSpace=wrap;rounded=0;" vertex="1" parent="1">
          <mxGeometry x="250" y="1210" width="90.551" height="29.9212" as="geometry" />
        </mxCell>
        <mxCell id="inlszF1YrQIbjWRIglU9-35" value="" style="rounded=0;whiteSpace=wrap;html=1;" vertex="1" parent="1">
          <mxGeometry x="622" y="1210" width="155.51149999999998" height="29.9212" as="geometry" />
        </mxCell>
        <mxCell id="inlszF1YrQIbjWRIglU9-36" value="Division" style="text;strokeColor=none;align=right;fillColor=none;html=1;verticalAlign=middle;whiteSpace=wrap;rounded=0;" vertex="1" parent="1">
          <mxGeometry x="512" y="1210" width="101.55" height="29.92" as="geometry" />
        </mxCell>
        <mxCell id="inlszF1YrQIbjWRIglU9-37" value="Department" style="text;strokeColor=none;align=right;fillColor=none;html=1;verticalAlign=middle;whiteSpace=wrap;rounded=0;" vertex="1" parent="1">
          <mxGeometry x="512" y="1250" width="101.55" height="29.92" as="geometry" />
        </mxCell>
        <mxCell id="inlszF1YrQIbjWRIglU9-38" value="" style="rounded=0;whiteSpace=wrap;html=1;" vertex="1" parent="1">
          <mxGeometry x="622" y="1250" width="155.51149999999998" height="29.9212" as="geometry" />
        </mxCell>
        <mxCell id="inlszF1YrQIbjWRIglU9-39" value="" style="rounded=0;whiteSpace=wrap;html=1;" vertex="1" parent="1">
          <mxGeometry x="348" y="1250" width="155.51149999999998" height="29.9212" as="geometry" />
        </mxCell>
        <mxCell id="inlszF1YrQIbjWRIglU9-40" value="Locality" style="text;strokeColor=none;align=right;fillColor=none;html=1;verticalAlign=middle;whiteSpace=wrap;rounded=0;" vertex="1" parent="1">
          <mxGeometry x="248" y="1250" width="91.55" height="29.92" as="geometry" />
        </mxCell>
      </root>
    </mxGraphModel>
  </diagram>
</mxfile>
